<svg xmlns="http://www.w3.org/2000/svg" xmlns:xlink="http://www.w3.org/1999/xlink" width="71.372" height="67.48" viewBox="0 0 71.372 67.48"><defs><linearGradient id="a" x1="0.5" y1="1" x2="0.5" gradientUnits="objectBoundingBox"><stop offset="0" stop-color="#ffa027"/><stop offset="0.272" stop-color="#ffc151"/><stop offset="0.763" stop-color="#ffc93f"/><stop offset="1" stop-color="#ffe261"/></linearGradient></defs><g transform="translate(0)"><ellipse cx="33.739" cy="33.74" rx="33.739" ry="33.74" transform="translate(0 0)" fill="url(#a)"/><g transform="translate(36.71 17.903)"><path d="M51.814,24.707a9.282,9.282,0,1,1-9.282-9.282A9.284,9.284,0,0,1,51.814,24.707Z" transform="translate(-33.25 -15.425)" fill="#fff"/><ellipse cx="4.397" cy="4.397" rx="4.397" ry="4.397" transform="translate(4.885 4.885)" fill="#302c3b"/></g><g transform="translate(11.509 19.142)"><path d="M49.087,23.344a7.918,7.918,0,1,1-7.918-7.919A7.92,7.92,0,0,1,49.087,23.344Z" transform="translate(-33.25 -15.425)" fill="#fff"/><ellipse cx="3.751" cy="3.751" rx="3.751" ry="3.751" transform="translate(4.168 4.168)" fill="#302c3b"/></g><ellipse cx="5.81" cy="5.34" rx="5.81" ry="5.34" transform="translate(27.955 43.629)" fill="#302c3b"/><path d="M12.695,15.768c4.579-3.53,11.362-5.306,15.18-4.224.8.227,1.285,3.218.587,3.112a22.513,22.513,0,0,0-15.624,3.127C12.243,18.186,12.005,16.3,12.695,15.768Z" transform="translate(-3.847 -0.648)" fill="#917524"/><path d="M52.831,15.765c-4.581-3.527-11.363-5.3-15.18-4.222-.806.229-1.286,3.217-.589,3.113a22.509,22.509,0,0,1,15.626,3.127C53.281,18.183,53.519,16.294,52.831,15.765Z" transform="translate(3.184 -0.648)" fill="#917524"/><g transform="translate(24.845 11.648) rotate(-16)"><path d="M5.355,20.87c-1.28.615-2.5.73-2.73.254L.037,2.529c-.228-.475.621-1.362,1.9-1.981h0c1.278-.616,2.5-.732,2.731-.254L7.258,18.886c.227.474-.625,1.365-1.9,1.983Z" transform="translate(19.825 33.366)" fill="#1b1b1b"/><path d="M17.879,35.758A17.883,17.883,0,0,1,10.921,1.4a17.884,17.884,0,0,1,13.916,32.95A17.775,17.775,0,0,1,17.879,35.758Zm0-33.939a16.061,16.061,0,1,0,16.063,16.06A16.079,16.079,0,0,0,17.878,1.818Z" transform="translate(0 0)" fill="#1b1b1b"/><path d="M16.267,32.533A16.271,16.271,0,0,1,9.937,1.277,16.271,16.271,0,0,1,22.6,31.255,16.171,16.171,0,0,1,16.267,32.533Zm0-30.747a14.48,14.48,0,1,0,14.48,14.48A14.5,14.5,0,0,0,16.269,1.786Z" transform="translate(1.607 1.608)" fill="#292929"/><g transform="translate(3.395 3.395)" opacity="0.44"><g transform="translate(0 0)"><path d="M28.961,14.48A14.48,14.48,0,1,1,14.48,0,14.479,14.479,0,0,1,28.961,14.48Z" transform="translate(0 0)" fill="#fff"/><ellipse cx="12.693" cy="12.693" rx="12.693" ry="12.693" transform="translate(1.787 1.787)" fill="#b9d5de"/><path d="M5.72,0a12.692,12.692,0,0,0,6.973,23.3c.124,0,.248-.017.371-.02C.614,17.105,3.689,4.29,5.72,0Z" transform="translate(1.786 3.849)" fill="#eaf0f2"/></g></g></g><g transform="translate(71.372 57.053) rotate(159)"><path d="M6.875.492C1.306-.948-1.138,4.817.5,9.947c.587,1.835,3.942,1.507,3.942,1.507S7.932,13.237,9.2,13.138a30.241,30.241,0,0,0,3.579-1.1l-.534-4.016a5.813,5.813,0,0,0-.678-2.3,2.766,2.766,0,0,0-.521-2.668A2.667,2.667,0,0,0,6.875.492Z" transform="translate(0.502 0.589)" fill="#fff"/><path d="M7.261.561C1.251-1.022-1.1,5.5.476,10.345c.652,2.008,8.193,4.022,9.476,3.99s3.527-.681,3.583-2.588a7.988,7.988,0,0,0-.623-3.335,3.859,3.859,0,0,0-.405-2.227,3.091,3.091,0,0,0-.562-2.932A2.952,2.952,0,0,0,7.261.561ZM8.374,2.409l-.667-.845C10.453.052,12.376,3.6,9.473,4.9a2.709,2.709,0,0,0,1.7-.7c.851,1.458.758,2.4-.928,3.673a2.717,2.717,0,0,0,1.574-.924c.832,1.842.349,2.614-1.184,3.576a3.869,3.869,0,0,0,1.691-.948c-.015-.379.556,1.247.18,2.3a1.4,1.4,0,0,1-.12.239c-.437.837-1.92,1.187-2.914,1.089C8.729,13.135,5.167,12.1,5.167,12.1S1.9,11.207,1.513,9.807C-.208,3.532,3.758-.2,8.374,2.409Z" transform="translate(0 0)" fill="#99a8ae"/></g></g></svg>