<svg id="Download_on_the_App_Store_Badge_US-UK_RGB_blk_092917" xmlns="http://www.w3.org/2000/svg" width="146" height="51" viewBox="0 0 146 51">
  <g id="Group_595" data-name="Group 595" transform="translate(0 0)">
    <g id="Group_593" data-name="Group 593">
      <path id="Path_490" data-name="Path 490" d="M134.373,0H11.633c-.447,0-.889,0-1.336,0-.374,0-.744.01-1.121.016A15.447,15.447,0,0,0,6.731.244a7.779,7.779,0,0,0-4.294,2.3A7.975,7.975,0,0,0,1,4.613,8.684,8.684,0,0,0,.237,7.04,17.292,17.292,0,0,0,.018,9.592c-.011.391-.013.783-.018,1.174V40.237c.006.4.007.779.018,1.175a17.291,17.291,0,0,0,.219,2.552A8.666,8.666,0,0,0,1,46.393a7.909,7.909,0,0,0,1.438,2.058,7.68,7.68,0,0,0,1.975,1.5,7.934,7.934,0,0,0,2.319.8,15.727,15.727,0,0,0,2.445.225c.377.009.748.014,1.121.014.446,0,.888,0,1.336,0h122.74c.438,0,.884,0,1.323,0,.372,0,.753,0,1.125-.014a15.522,15.522,0,0,0,2.44-.225,8.056,8.056,0,0,0,2.328-.8,7.684,7.684,0,0,0,1.973-1.5A8.146,8.146,0,0,0,145,46.393a8.69,8.69,0,0,0,.755-2.428,17.975,17.975,0,0,0,.226-2.552c0-.4,0-.78,0-1.175.01-.463.01-.924.01-1.395V12.159c0-.467,0-.93-.01-1.392,0-.391,0-.783,0-1.174a17.972,17.972,0,0,0-.226-2.553A8.707,8.707,0,0,0,145,4.613,7.861,7.861,0,0,0,139.261.244a15.247,15.247,0,0,0-2.44-.225C136.449.012,136.068,0,135.7,0c-.438,0-.884,0-1.323,0Z" transform="translate(0 0)" fill="#a6a6a6"/>
      <path id="Path_491" data-name="Path 491" d="M10.111,49.74c-.372,0-.734,0-1.1-.014a14.8,14.8,0,0,1-2.28-.208,6.957,6.957,0,0,1-2.021-.7,6.618,6.618,0,0,1-1.7-1.3,6.792,6.792,0,0,1-1.245-1.784,7.553,7.553,0,0,1-.663-2.117,16.585,16.585,0,0,1-.2-2.4c-.008-.269-.018-1.166-.018-1.166V10.545S.884,9.662.891,9.4a16.528,16.528,0,0,1,.2-2.392,7.6,7.6,0,0,1,.663-2.123A6.8,6.8,0,0,1,6.723,1.1,14.683,14.683,0,0,1,9.011.891l1.1-.016H135.5l1.114.016a14.449,14.449,0,0,1,2.267.208,6.8,6.8,0,0,1,4.985,3.791A7.61,7.61,0,0,1,144.517,7a17.36,17.36,0,0,1,.212,2.411c0,.362,0,.75,0,1.137.01.479.01.935.01,1.395V38.676c0,.464,0,.917-.01,1.374,0,.415,0,.8,0,1.188a17.012,17.012,0,0,1-.209,2.368,7.578,7.578,0,0,1-.659,2.133,6.994,6.994,0,0,1-1.239,1.77,6.628,6.628,0,0,1-1.707,1.306,6.93,6.93,0,0,1-2.035.7,14.633,14.633,0,0,1-2.281.208c-.357.009-.732.014-1.095.014l-1.323,0Z" transform="translate(0.192 0.193)"/>
    </g>
    <g id="_Group_" data-name="&lt;Group&gt;" transform="translate(12.166 11.897)">
      <g id="_Group_2" data-name="&lt;Group&gt;">
        <g id="_Group_3" data-name="&lt;Group&gt;">
          <path id="_Path_" data-name="&lt;Path&gt;" d="M28.025,21.693A6.038,6.038,0,0,1,30.9,16.627a6.181,6.181,0,0,0-4.87-2.633c-2.049-.215-4.035,1.226-5.079,1.226-1.064,0-2.672-1.2-4.4-1.169a6.485,6.485,0,0,0-5.457,3.328c-2.36,4.085-.6,10.089,1.661,13.392,1.131,1.617,2.453,3.423,4.182,3.359,1.692-.07,2.324-1.079,4.367-1.079,2.024,0,2.617,1.079,4.381,1.038,1.816-.029,2.96-1.624,4.051-3.257a13.374,13.374,0,0,0,1.853-3.773,5.834,5.834,0,0,1-3.562-5.367Z" transform="translate(-9.972 -7.564)" fill="#fff"/>
          <path id="_Path_2" data-name="&lt;Path&gt;" d="M22.752,12.979a5.945,5.945,0,0,0,1.36-4.259A6.048,6.048,0,0,0,20.2,10.745a5.657,5.657,0,0,0-1.4,4.1,5,5,0,0,0,3.949-1.867Z" transform="translate(-8.031 -8.72)" fill="#fff"/>
        </g>
      </g>
      <g id="Group_594" data-name="Group 594" transform="translate(29.838 11.165)">
        <path id="Path_492" data-name="Path 492" d="M44.035,29.134H38.26l-1.387,4.1H34.427L39.9,18.078h2.541l5.47,15.151H45.421Zm-5.177-1.89h4.578L41.179,20.6h-.063Z" transform="translate(-34.427 -17.825)" fill="#fff"/>
        <path id="Path_493" data-name="Path 493" d="M57.037,26.987c0,3.433-1.837,5.638-4.61,5.638a3.745,3.745,0,0,1-3.476-1.933H48.9v5.471H46.631v-14.7h2.195V23.3h.042a3.918,3.918,0,0,1,3.517-1.953C55.189,21.348,57.037,23.564,57.037,26.987Zm-2.331,0c0-2.236-1.156-3.707-2.919-3.707-1.732,0-2.9,1.5-2.9,3.707,0,2.226,1.165,3.716,2.9,3.716,1.763,0,2.919-1.46,2.919-3.716Z" transform="translate(-31.741 -17.106)" fill="#fff"/>
        <path id="Path_494" data-name="Path 494" d="M67,26.987c0,3.433-1.837,5.638-4.61,5.638a3.745,3.745,0,0,1-3.476-1.933h-.052v5.471H56.6v-14.7h2.195V23.3h.042a3.918,3.918,0,0,1,3.517-1.953C65.153,21.348,67,23.564,67,26.987Zm-2.331,0c0-2.236-1.156-3.707-2.919-3.707-1.732,0-2.9,1.5-2.9,3.707,0,2.226,1.165,3.716,2.9,3.716,1.763,0,2.919-1.46,2.919-3.716Z" transform="translate(-29.548 -17.106)" fill="#fff"/>
        <path id="Path_495" data-name="Path 495" d="M72.129,29.053c.168,1.5,1.628,2.489,3.622,2.489,1.911,0,3.286-.987,3.286-2.341,0-1.176-.829-1.88-2.793-2.363l-1.964-.473c-2.782-.672-4.074-1.973-4.074-4.084,0-2.614,2.278-4.41,5.513-4.41,3.2,0,5.4,1.8,5.47,4.41H78.9c-.137-1.512-1.387-2.425-3.213-2.425s-3.076.923-3.076,2.267c0,1.071.8,1.7,2.751,2.184l1.669.41c3.109.735,4.4,1.984,4.4,4.2,0,2.835-2.258,4.61-5.849,4.61-3.36,0-5.629-1.734-5.775-4.474Z" transform="translate(-26.641 -17.871)" fill="#fff"/>
        <path id="Path_496" data-name="Path 496" d="M84.047,19.3v2.614h2.1v1.8h-2.1V29.8c0,.946.421,1.387,1.344,1.387a7.085,7.085,0,0,0,.746-.052v1.785a6.226,6.226,0,0,1-1.259.1c-2.236,0-3.109-.84-3.109-2.982V23.71H80.163v-1.8h1.606V19.3Z" transform="translate(-24.362 -17.557)" fill="#fff"/>
        <path id="Path_497" data-name="Path 497" d="M86.065,26.991c0-3.476,2.047-5.66,5.239-5.66s5.24,2.184,5.24,5.66-2.027,5.66-5.24,5.66S86.065,30.476,86.065,26.991Zm8.169,0c0-2.384-1.093-3.791-2.93-3.791s-2.929,1.418-2.929,3.791c0,2.394,1.091,3.79,2.929,3.79s2.93-1.4,2.93-3.79Z" transform="translate(-23.063 -17.11)" fill="#fff"/>
        <path id="Path_498" data-name="Path 498" d="M96.186,21.464h2.163v1.88H98.4a2.635,2.635,0,0,1,2.657-2,3.5,3.5,0,0,1,.777.085v2.121a3.17,3.17,0,0,0-1.019-.137,2.285,2.285,0,0,0-2.363,2.541V32.51H96.186Z" transform="translate(-20.835 -17.106)" fill="#fff"/>
        <path id="Path_499" data-name="Path 499" d="M111.181,29.269c-.305,2.005-2.258,3.381-4.756,3.381-3.213,0-5.208-2.153-5.208-5.607s2.005-5.712,5.113-5.712c3.056,0,4.978,2.1,4.978,5.449v.777h-7.8v.137a2.877,2.877,0,0,0,2.972,3.129,2.5,2.5,0,0,0,2.551-1.554Zm-7.665-3.3h5.523a2.656,2.656,0,0,0-2.709-2.8,2.8,2.8,0,0,0-2.813,2.8Z" transform="translate(-19.728 -17.11)" fill="#fff"/>
      </g>
    </g>
  </g>
  <g id="_Group_4" data-name="&lt;Group&gt;" transform="translate(43.521 10.845)">
    <g id="Group_596" data-name="Group 596">
      <path id="Path_500" data-name="Path 500" d="M38.3,8.732a3.221,3.221,0,0,1,3.426,3.617c0,2.326-1.257,3.663-3.426,3.663h-2.63V8.732Zm-1.5,6.25h1.373a2.289,2.289,0,0,0,2.4-2.618,2.295,2.295,0,0,0-2.4-2.6H36.8Z" transform="translate(-35.671 -8.374)" fill="#fff"/>
      <path id="Path_501" data-name="Path 501" d="M41.683,12.958a2.6,2.6,0,1,1,5.182,0,2.6,2.6,0,1,1-5.182,0Zm4.067,0c0-1.191-.535-1.887-1.474-1.887s-1.473.7-1.473,1.887.53,1.891,1.473,1.891S45.749,14.154,45.749,12.958Z" transform="translate(-34.35 -8.069)" fill="#fff"/>
      <path id="Path_502" data-name="Path 502" d="M52.675,15.689H51.55l-1.135-4.046h-.086L49.2,15.689H48.084l-1.514-5.494h1.1l.984,4.192h.081l1.13-4.192H50.9l1.13,4.192h.086l.979-4.192h1.084Z" transform="translate(-33.272 -8.05)" fill="#fff"/>
      <path id="Path_503" data-name="Path 503" d="M53.854,10.215H54.9v.873h.081a1.645,1.645,0,0,1,1.639-.979,1.787,1.787,0,0,1,1.9,2.043v3.557H57.435V12.425c0-.883-.384-1.322-1.186-1.322a1.26,1.26,0,0,0-1.312,1.392v3.214H53.854Z" transform="translate(-31.669 -8.07)" fill="#fff"/>
      <path id="Path_504" data-name="Path 504" d="M59.094,8.437h1.084v7.639H59.094Z" transform="translate(-30.516 -8.437)" fill="#fff"/>
      <path id="Path_505" data-name="Path 505" d="M61.22,12.959a2.6,2.6,0,1,1,5.182,0,2.6,2.6,0,1,1-5.182,0Zm4.067,0c0-1.191-.535-1.887-1.474-1.887s-1.473.7-1.473,1.887.53,1.891,1.473,1.891S65.287,14.154,65.287,12.959Z" transform="translate(-30.051 -8.069)" fill="#fff"/>
      <path id="Path_506" data-name="Path 506" d="M66.4,14.154c0-.989.736-1.559,2.043-1.64l1.488-.086v-.474c0-.58-.384-.908-1.125-.908-.605,0-1.025.222-1.145.611h-1.05c.111-.944,1-1.549,2.245-1.549,1.377,0,2.154.686,2.154,1.846v3.754H69.968v-.772h-.086a1.848,1.848,0,0,1-1.65.863A1.66,1.66,0,0,1,66.4,14.154Zm3.532-.469v-.459l-1.342.086c-.757.051-1.1.308-1.1.792s.429.782,1.019.782a1.3,1.3,0,0,0,1.423-1.2Z" transform="translate(-28.908 -8.069)" fill="#fff"/>
      <path id="Path_507" data-name="Path 507" d="M71.348,13.326c0-1.736.892-2.836,2.281-2.836a1.811,1.811,0,0,1,1.685.964h.081V8.437h1.084v7.639H75.44v-.868h-.086a1.907,1.907,0,0,1-1.725.959C72.231,16.166,71.348,15.066,71.348,13.326Zm1.12,0c0,1.165.549,1.866,1.468,1.866s1.479-.711,1.479-1.862-.571-1.866-1.479-1.866-1.468.706-1.468,1.862Z" transform="translate(-27.819 -8.437)" fill="#fff"/>
      <path id="Path_508" data-name="Path 508" d="M79.232,12.958a2.6,2.6,0,1,1,5.182,0,2.6,2.6,0,1,1-5.182,0Zm4.067,0c0-1.191-.535-1.887-1.474-1.887s-1.473.7-1.473,1.887.53,1.891,1.473,1.891S83.3,14.154,83.3,12.958Z" transform="translate(-26.087 -8.069)" fill="#fff"/>
      <path id="Path_509" data-name="Path 509" d="M84.669,10.215h1.044v.873h.081a1.645,1.645,0,0,1,1.639-.979,1.787,1.787,0,0,1,1.9,2.043v3.557H88.251V12.425c0-.883-.384-1.322-1.186-1.322a1.26,1.26,0,0,0-1.312,1.392v3.214H84.669Z" transform="translate(-24.887 -8.07)" fill="#fff"/>
      <path id="Path_510" data-name="Path 510" d="M93.868,9.074v1.393h1.19v.913h-1.19V14.2c0,.575.237.827.777.827a3.619,3.619,0,0,0,.413-.025v.9a3.557,3.557,0,0,1-.59.055c-1.206,0-1.686-.424-1.686-1.483v-3.1h-.872v-.913h.872V9.074Z" transform="translate(-23.294 -8.297)" fill="#fff"/>
      <path id="Path_511" data-name="Path 511" d="M95.7,8.437h1.075v3.028h.086a1.691,1.691,0,0,1,1.675-.984,1.81,1.81,0,0,1,1.892,2.048v3.547H99.347V12.8c0-.878-.409-1.322-1.175-1.322a1.283,1.283,0,0,0-1.383,1.393v3.209H95.7Z" transform="translate(-22.459 -8.437)" fill="#fff"/>
      <path id="Path_512" data-name="Path 512" d="M105.652,14.224a2.23,2.23,0,0,1-2.381,1.589,2.5,2.5,0,0,1-2.538-2.836,2.534,2.534,0,0,1,2.533-2.87c1.529,0,2.451,1.044,2.451,2.77v.378h-3.879v.061A1.452,1.452,0,0,0,103.3,14.89a1.317,1.317,0,0,0,1.307-.666Zm-3.814-1.771h2.775a1.326,1.326,0,0,0-1.352-1.423,1.405,1.405,0,0,0-1.423,1.423Z" transform="translate(-21.357 -8.069)" fill="#fff"/>
    </g>
  </g>
</svg>
