<svg xmlns="http://www.w3.org/2000/svg" width="152.445" height="51" viewBox="0 0 152.445 51">
  <g id="Group_598" data-name="Group 598" transform="translate(-1141 -693)">
    <g id="Rectangle_762" data-name="Rectangle 762" transform="translate(1141 694)" stroke="#787878" stroke-linejoin="round" stroke-width="1.3">
      <rect width="152.445" height="48.8" rx="6" stroke="none"/>
      <rect x="0.65" y="0.65" width="151.145" height="47.5" rx="5.35" fill="none"/>
    </g>
    <text id="КУПИТЬ_Билеты" data-name="КУПИТЬ 
Билеты" transform="translate(1200.445 693)" fill="#fff" font-size="11" font-family="SegoeUI, Segoe UI"><tspan x="0" y="22">КУПИТЬ</tspan><tspan y="22" font-size="20"> </tspan><tspan font-size="21"><tspan x="0" y="42">Билеты</tspan></tspan></text>
    <g id="logo2_1_" data-name="logo2 (1)" transform="translate(1150 704)">
      <path id="Path_513" data-name="Path 513" d="M27.141,39.275a1.2,1.2,0,0,1,.828-.722q2.441-.067,4.881,0a.661.661,0,0,1,.632.344,1.869,1.869,0,0,1,.156.531,11.178,11.178,0,0,1,.094,2.023.541.541,0,0,0,.394.587c.455.177.9.382,1.347.578.58.255.71.233,1.167-.2a1.517,1.517,0,0,0,.113-.132c.4-.323.705-.748,1.127-1.042.132-.092.271-.179.406-.269a1.622,1.622,0,0,1,1.259.512c.554.566,1.12,1.12,1.679,1.681.373.375.729.764,1.113,1.125a1.256,1.256,0,0,1-.009,1.828c-.083.066-.2.134-.172.281l-.219.219c-.328.123-.493.429-.733.648a.628.628,0,0,0-.151.724,11.685,11.685,0,0,0,.453,1.146c.34.8.217.87,1.368.915a16.037,16.037,0,0,1,1.648.052.617.617,0,0,1,.516.38,3,3,0,0,1,.248,1.257c.007,1.17.007,2.337.014,3.507a2.617,2.617,0,0,1-.094.814c-.059.184.031.2.17.2.3,0,.611.012.913,0,.226-.012.309.052.3.292-.017.618,0,1.238-.009,1.856,0,.193.033.271.252.271,1.63-.009,3.261-.007,4.891-.009.111.071-.007.083-.033.1-.295.179-.594.354-.891.528l-2.193,1.271-.83.476a.269.269,0,0,0,.217.16q1.51.881,3.018,1.764l.729.417-.014.073h-1.6c-.1,0-.2-.009-.292-.009-1.832,0-3.665,0-5.5,0-.212,0-.288-.042-.281-.274.019-.5,0-1,0-1.5a.038.038,0,0,0,0-.054c.007-.606.007-.606-.592-.585-.05,0-.1.009-.146.012l-.175-.007c-.427,0-.429,0-.42.415a1.228,1.228,0,0,1-.351.9c-.736.8-1.523,1.547-2.283,2.323-.092.094-.222.163-.264.3l0,0c-.042-.009-.057.017-.066.052-.222.158-.375.4-.613.538-.045,0-.09,0-.092.059l0,0c-.215-.024-.415.1-.639.054a1.732,1.732,0,0,1-.863-.472c-.38-.37-.75-.75-1.139-1.111-.151-.139-.321-.307-.573-.2a14.832,14.832,0,0,0-1.4.592c-.507.123-.641.245-.674.632-.007.165-.014.33-.019.5a5.953,5.953,0,0,1-.137,1.884,1.775,1.775,0,0,1-.637.545c-.175.014-.351.04-.526.04-1.53.009-3.061.033-4.589-.038a.576.576,0,0,1-.575-.415,5.6,5.6,0,0,1-.146-.684,11.455,11.455,0,0,1-.061-1.821.488.488,0,0,0-.325-.516c-.561-.226-1.108-.483-1.667-.715-.127-.054-.271-.141-.42-.061a3.07,3.07,0,0,0-.854.755.165.165,0,0,0,.04.021s.017-.009.024-.017l-1.064.913c-.05-.007-.09,0-.092.059l0,0a1.312,1.312,0,0,1-1.349-.33c-.939-.92-1.863-1.858-2.792-2.787a1.416,1.416,0,0,1-.5-1.339c.007-.019.017-.038.024-.054l-.04-.007h-.582a.519.519,0,0,0-.085-.009c-.667-.019-.667-.019-.62.649,0,.467,0,.934,0,1.4-.073.165.123.417-.113.509a1.651,1.651,0,0,1-.542.026l-6.73-.007-.309-.024c.988-.717,2.033-1.273,3.047-1.877.358-.054.6-.33.981-.493L9.98,59.435l-.91-.564.007-.066h1.382l3.132-.014c.792.028.644.092.639-.54,0-.448,0-.9,0-1.347.05-.205-.092-.491.061-.606s.408-.042.618-.054l.021.009.021-.007a1.443,1.443,0,0,0,.175.009c.184,0,.434.061.533-.033s-.064-.328-.075-.507a2.511,2.511,0,0,1-.04-.349c.024-1.516-.061-3.033.045-4.547a1.135,1.135,0,0,1,.778-.71,10.232,10.232,0,0,1,1.545-.059,1.381,1.381,0,0,0,.6-.052c.34.024.453-.224.559-.474.151-.358.292-.722.457-1.073.422-.887.394-1.059-.363-1.7a2.159,2.159,0,0,1-1.033-2.118l0,0c.083,0,.066-.078.087-.123,1.038-1.146,2.17-2.2,3.254-3.3a1.244,1.244,0,0,1,.429-.241,1.374,1.374,0,0,1,1.37.455c.231.241.467.472.7.707a3.819,3.819,0,0,0,.623.531.4.4,0,0,0,.387.052,15.351,15.351,0,0,0,1.42-.6c.257-.068.531-.116.611-.432a3.724,3.724,0,0,0,.042-.873A5.694,5.694,0,0,1,27.141,39.275Zm9.739,4.3c-.042,0-.071.007-.064.057l0,0c-.066-.019-.113.024-.163.052a1.165,1.165,0,0,1-1.012.094c-.568-.179-1.1-.45-1.653-.66a3.172,3.172,0,0,1-.849-.455,1.026,1.026,0,0,1-.408-.743c-.052-.509-.038-1.019-.047-1.528a4.056,4.056,0,0,0-.035-.585c-.026-.167-.085-.229-.259-.229-1.2.007-2.391,0-3.589,0-.729-.04-.729-.04-.712.639v.262a4.286,4.286,0,0,1-.231,1.92l0,0c-.04,0-.057.019-.061.054a3.411,3.411,0,0,1-.59.5c-.533.212-1.073.415-1.6.641a1.591,1.591,0,0,1-1.785-.2c-.144-.118-.29-.231-.422-.363q-.456-.456-.917-.913c-.158-.156-.3-.2-.467,0-.141.175-.309.328-.465.491-.766.717-1.5,1.467-2.228,2.226-.219.229-.208.4.019.63.259.266.528.526.809.769a1.721,1.721,0,0,1,.561,2.078c-.318.7-.542,1.441-.929,2.111a2.442,2.442,0,0,1-.651.542,9.676,9.676,0,0,1-1.882.125c-.7-.08-.748-.033-.693.637,0,1.148-.007,2.3-.007,3.445,0,.078.04.156.035.231-.012.224.111.25.3.25,1.472,0,2.945,0,4.417,0l4.094-.009q1.97.007,3.941.009c1.646,0,3.294-.007,4.94-.009h9.315c.8.014.639.1.639-.524q0-1.779,0-3.558c0-.075-.038-.153-.038-.229,0-.193-.108-.241-.285-.241-.491,0-.981-.024-1.469-.031a1.731,1.731,0,0,1-1.809-1.323,6.12,6.12,0,0,0-.316-.724,2.635,2.635,0,0,1-.259-2.026l0,0c.083-.014.078-.071.064-.132L41,45.979a5.734,5.734,0,0,0,.533-.538c.2-.2.156-.335-.019-.512-.814-.816-1.618-1.641-2.429-2.46a4.141,4.141,0,0,0-.373-.33c-.064-.052-.132-.12-.229-.042a2.419,2.419,0,0,0-.686.7c-.031.031-.064.059-.094.09H37.68s.007.007.012.009l-.712.594c-.045.017-.094.026-.106.085ZM32.725,66.5a8.248,8.248,0,0,1,.139-2.113,2.256,2.256,0,0,1,.943-.828c.052,0,.111.014.113-.068l0,0a10.042,10.042,0,0,0,1.365-.5,1.533,1.533,0,0,1,1.653.189,11.039,11.039,0,0,1,1.023.967c.627.623.625.625,1.2-.035.007-.007.007-.019.009-.028.615-.564,1.193-1.163,1.769-1.764a3.2,3.2,0,0,0,.663-.729H20.748c-.087,0-.177.007-.264.012H19.222c.248.245.45.448.653.651Q20.936,63.329,22,64.4c.151.153.281.2.457,0,.137-.146.311-.259.439-.42a6.945,6.945,0,0,1,1.358-1.132c.052,0,.108,0,.116-.068h0a2.37,2.37,0,0,1,1.177.177c.528.229,1.066.441,1.6.665a1.42,1.42,0,0,1,.964,1.483,8.864,8.864,0,0,0,.042,1.677c.024.163.078.236.257.243,1.226.038,2.453.066,3.681-.007.075,0,.153.009.229.009.394,0,.413-.017.417-.42A.457.457,0,0,0,32.725,66.5Zm.939-6.367c.559,0,1.118-.007,1.679,0,.167,0,.238-.035.259-.217.1-.778.222-1.554.323-2.33.08-.6.071-.6-.535-.578-.151,0-.2.057-.222.2-.071.554-.158,1.106-.231,1.66-.066.512-.059.5-.559.5-.189,0-.233-.045-.2-.231.087-.531.156-1.066.233-1.6s.078-.521-.467-.535c-.222-.007-.281.071-.307.276-.064.535-.149,1.068-.224,1.6-.073.512-.073.5-.6.488-.141,0-.184-.031-.158-.182.085-.533.153-1.066.233-1.6.09-.6.092-.6-.528-.582-.144,0-.21.04-.231.189-.12.9-.245,1.809-.377,2.71-.028.191.033.231.212.226C32.525,60.123,33.093,60.13,33.664,60.13ZM41.2,58.543c.012.009.024.017.038.026-.033.163-.071.323-.1.486s-.05.33-.073.5c-.085.6-.085.6.531.585.165,0,.208-.057.229-.217q.177-1.341.384-2.679c.031-.2-.033-.215-.205-.233a.74.74,0,0,0-.795.389c-.278.441-.611.849-.92,1.271.075-.358.087-.717.146-1.071.1-.6.1-.6-.524-.587-.137,0-.212.021-.233.182-.123.924-.257,1.846-.384,2.771-.009.061-.04.132.059.17a.909.909,0,0,0,.858-.25C40.545,59.437,40.875,58.989,41.2,58.543Zm-17.04-.061c-.045.243-.075.4-.1.564s-.052.33-.078.493c-.094.608-.094.6.519.594.156,0,.219-.038.241-.205.12-.9.257-1.806.384-2.71.009-.061.047-.137-.024-.191a1.154,1.154,0,0,0-.771.1c-.33.45-.656.906-.988,1.356-.047.064-.047.179-.186.165a2,2,0,0,0,.111-.5c.017-.175.047-.349.078-.524.111-.653.113-.653-.547-.613h-.028c-.106-.007-.153.035-.17.149-.13.931-.264,1.863-.4,2.8-.009.073-.035.149.087.177a.813.813,0,0,0,.884-.318C23.493,59.392,23.8,58.97,24.165,58.482Zm2.769-.3c-.441,0-.439,0-.382-.42.012-.087.017-.177.031-.264.078-.491.078-.472-.427-.5-.264-.014-.328.087-.358.318-.092.75-.2,1.5-.307,2.243-.08.573-.085.561.486.571.208,0,.271-.071.283-.264.014-.224.064-.448.083-.672.017-.175.071-.248.269-.245.632,0,.632,0,.549.637a.115.115,0,0,0,0,.028c-.061.512-.061.5.465.516.236.009.292-.078.318-.29.094-.75.2-1.5.314-2.243.092-.63.094-.623-.547-.594-.156.007-.2.064-.21.208-.024.264-.08.524-.106.785-.012.134-.052.2-.193.186A2.466,2.466,0,0,0,26.933,58.185Zm3.351-1.219a1.379,1.379,0,0,0-1.453.976c-.087.413-.134.832-.182,1.252a.728.728,0,0,0,.233.641,1.427,1.427,0,0,0,1.41.264,1.162,1.162,0,0,0,.934-.915c.08-.4.132-.814.175-1.224a.807.807,0,0,0-.5-.854A1.5,1.5,0,0,0,30.284,56.966Zm-8.044.047a6.529,6.529,0,0,1-.656,0,.582.582,0,0,0-.575.257c-.208.276-.45.524-.679.785a1.453,1.453,0,0,1,.007-.5c.083-.542.085-.533-.457-.545-.2,0-.295.038-.321.259-.094.781-.212,1.556-.316,2.335-.071.54-.066.528.5.535.2,0,.252-.068.271-.248.026-.269.073-.538.123-.877.208.356.377.651.552.941.047.08.075.182.205.177.281-.007.564,0,.9,0-.314-.5-.594-.95-.889-1.4a.225.225,0,0,1,.031-.344C21.359,57.956,21.769,57.51,22.24,57.013Zm15.1,1.118c.033-.255.052-.436.078-.615.075-.507.078-.493-.439-.512-.241-.009-.314.075-.342.3-.092.75-.2,1.5-.309,2.245-.085.59-.085.578.5.585.205,0,.248-.085.264-.252.028-.269.073-.538.12-.877.208.358.377.653.552.946.042.073.066.175.177.177.295,0,.592,0,.931,0-.307-.486-.566-.927-.856-1.342-.139-.2-.1-.3.054-.462.413-.413.8-.844,1.247-1.314a5.426,5.426,0,0,1-.561,0,.7.7,0,0,0-.722.321C37.847,57.6,37.609,57.829,37.345,58.131Z" transform="translate(-9.07 -38.52)" fill="#fff"/>
      <path id="Path_514" data-name="Path 514" d="M47.552,63.93c-.021.047,0,.12-.087.123C47.436,63.972,47.488,63.947,47.552,63.93Z" transform="translate(-38.404 -57.938)" fill="#fcaa36"/>
      <path id="Path_515" data-name="Path 515" d="M139.21,150.738c.007-.035.024-.059.066-.052C139.278,150.735,139.245,150.738,139.21,150.738Z" transform="translate(-108.521 -124.234)" fill="#5c60bb"/>
      <path id="Path_516" data-name="Path 516" d="M66.98,152.977c0-.064.045-.068.092-.059C67.053,152.956,67.037,153,66.98,152.977Z" transform="translate(-53.324 -125.938)" fill="#fcaa36"/>
      <path id="Path_517" data-name="Path 517" d="M136.22,153.237c0-.061.047-.061.092-.059C136.293,153.215,136.277,153.26,136.22,153.237Z" transform="translate(-106.236 -126.139)" fill="#fcaa36"/>
      <path id="Path_518" data-name="Path 518" d="M73.48,141.467a.092.092,0,0,1,.116-.068C73.588,141.472,73.532,141.465,73.48,141.467Z" transform="translate(-58.291 -117.135)" fill="#5c60bb"/>
      <path id="Path_519" data-name="Path 519" d="M113.98,144.444c.026-.042.05-.087.113-.068C114.091,144.458,114.032,144.446,113.98,144.444Z" transform="translate(-89.24 -119.41)" fill="#5c60bb"/>
      <path id="Path_520" data-name="Path 520" d="M130.428,57.05v.014l-.017,0s-.007-.007-.012-.009Z" transform="translate(-101.788 -52.68)" fill="#fcaa36"/>
      <path id="Path_521" data-name="Path 521" d="M47.247,134.064c0-.021-.012-.042-.017-.064l.04.007A.314.314,0,0,1,47.247,134.064Z" transform="translate(-38.231 -111.484)" fill="#d68727"/>
      <path id="Path_522" data-name="Path 522" d="M157.369,136.512a.278.278,0,0,1-.019-.038s.012-.009.016-.014A.033.033,0,0,1,157.369,136.512Z" transform="translate(-122.383 -113.364)" fill="#d68727"/>
      <path id="Path_523" data-name="Path 523" d="M88.561,54.968c0,.045-.028.05-.061.054C88.5,54.987,88.521,54.963,88.561,54.968Z" transform="translate(-69.769 -51.089)" fill="#5c60bb"/>
      <path id="Path_524" data-name="Path 524" d="M88.5,79.7l-.373.052c-1.266,0-2.533-.04-3.8,0-1.3.035-2.608-.007-3.912.031a.554.554,0,0,1-.575-.316c-.007-.031-.014-.061-.019-.094a.667.667,0,0,0,0-.354l.014-3.353a1.247,1.247,0,0,1,.08-.545c.1-.215.3-.2.476-.248a.5.5,0,0,0-.017-.059c-.054-.057-.111-.111-.165-.165a2.381,2.381,0,0,1-.748-1.818,4.538,4.538,0,0,1,.3-1.122l0,0c.047,0,.057-.031.057-.068l0,.007c.017-.019.031-.04.047-.059a3.157,3.157,0,0,1,1.085-.934c.123-.031.248-.054.366-.092a1.882,1.882,0,0,1,1.118,0,2.57,2.57,0,0,1,1.644,1.391c.014.064.021.151.09.163s.075-.071.1-.12l.163-.328c.113-.132.229-.264.342-.394a4.316,4.316,0,0,1,.762-.561,4.788,4.788,0,0,0,.63-.123,2.365,2.365,0,0,1,2.415,1.33,2.447,2.447,0,0,1-.441,2.707c-.054.059-.151.1-.134.208.639.026.7.083.729.733.009.208.08.163.212.106.736-.321,1.474-.641,2.217-.946.344-.141.5-.042.516.328a42.158,42.158,0,0,1,.059,4.367c0,.045,0,.087,0,.132-.017.035-.038.068-.052.1-.137.356-.189.382-.59.281a6.516,6.516,0,0,0-.962-.432,6.244,6.244,0,0,0-.941-.4c-.123-.078-.25-.186-.394-.141-.08.026-.024.158-.014.243-.026.092-.054.182-.08.274C88.64,79.542,88.572,79.619,88.5,79.7Zm-4.049-5.346c-.061-.1-.125-.2-.186-.3s-.035-.255-.174-.335a5.14,5.14,0,0,1-.524.818.675.675,0,0,0-.3.354c.172-.009.318-.017.462-.026h1.122A2.449,2.449,0,0,0,84.454,74.351Zm-3.313-1.53a.7.7,0,0,0,.8.783.6.6,0,0,0,.6-.481.708.708,0,0,0-.712-.934A.6.6,0,0,0,81.141,72.821Zm5.337.828a.588.588,0,0,0,.648-.533c0-.571-.262-.873-.755-.861a.659.659,0,0,0-.691.632A.711.711,0,0,0,86.478,73.649Z" transform="translate(-62.865 -62.935)" fill="#fff"/>
      <path id="Path_525" data-name="Path 525" d="M80.775,75.41c0,.038-.007.071-.057.068C80.7,75.429,80.735,75.415,80.775,75.41Z" transform="translate(-63.82 -66.711)" fill="#fcaa36"/>
      <path id="Path_526" data-name="Path 526" d="M80.992,75.19c-.017.019-.031.04-.047.059C80.938,75.211,80.957,75.195,80.992,75.19Z" transform="translate(-63.995 -66.543)" fill="#fcaa36"/>
      <path id="Path_527" data-name="Path 527" d="M96.023,121.565c-.344,0-.462-.132-.415-.462.042-.3.078-.6.13-.9.047-.276.316-.42.66-.368.281.042.342.134.3.481-.031.252-.075.5-.111.752A.5.5,0,0,1,96.023,121.565Z" transform="translate(-75.193 -100.652)" fill="#fff"/>
      <path id="Path_528" data-name="Path 528" d="M80.778,107.044a.266.266,0,0,1,0-.354A.667.667,0,0,1,80.778,107.044Z" transform="translate(-63.816 -90.614)" fill="#d68727"/>
    </g>
  </g>
</svg>
