<svg xmlns="http://www.w3.org/2000/svg" width="53" height="53" viewBox="0 0 53 53"><path d="M0,0H53V53H0Z" fill="none"/><path d="M30.595,16.25H27.083V5.208A2.215,2.215,0,0,0,24.875,3H16.042a2.215,2.215,0,0,0-2.208,2.208V16.25H10.322a2.215,2.215,0,0,0-1.568,3.776L18.89,30.163a2.2,2.2,0,0,0,3.114,0L32.14,20.026A2.209,2.209,0,0,0,30.595,16.25ZM5,38.333a2.215,2.215,0,0,0,2.208,2.208h26.5a2.208,2.208,0,1,0,0-4.417H7.208A2.215,2.215,0,0,0,5,38.333Z" transform="translate(6.042 3.625)" fill="#ffaa34"/></svg>