<svg xmlns="http://www.w3.org/2000/svg" width="96" height="96" viewBox="0 0 96 96"><g transform="translate(-380 -38)"><circle cx="48" cy="48" r="48" transform="translate(380 38)" fill="#fff"/><g transform="translate(388.765 58.87)"><path d="M41.055,39.856a2.117,2.117,0,0,1,1.465-1.277q4.32-.119,8.64.008a1.17,1.17,0,0,1,1.119.609,3.308,3.308,0,0,1,.275.939,19.784,19.784,0,0,1,.167,3.581.958.958,0,0,0,.7,1.039c.806.313,1.59.676,2.383,1.023,1.027.451,1.256.413,2.066-.355a2.686,2.686,0,0,0,.2-.234c.705-.572,1.248-1.323,2-1.845.234-.163.48-.317.718-.476a2.871,2.871,0,0,1,2.229.906c.981,1,1.983,1.983,2.972,2.976.659.664,1.29,1.352,1.97,1.991a2.222,2.222,0,0,1-.017,3.235c-.146.117-.359.238-.3.5l-.388.388c-.58.217-.872.76-1.3,1.148a1.112,1.112,0,0,0-.267,1.281,20.681,20.681,0,0,0,.8,2.029c.6,1.415.384,1.54,2.421,1.619a28.385,28.385,0,0,1,2.918.092,1.091,1.091,0,0,1,.914.672,5.308,5.308,0,0,1,.438,2.225c.013,2.07.013,4.136.025,6.207a4.633,4.633,0,0,1-.167,1.44c-.1.326.054.346.3.346.538-.008,1.081.021,1.615-.008.4-.021.547.092.538.518-.029,1.094,0,2.191-.017,3.285-.008.342.058.48.447.48,2.884-.017,5.773-.013,8.657-.017.2.125-.013.146-.058.175-.522.317-1.052.626-1.578.935q-1.941,1.127-3.882,2.25l-1.469.843a.476.476,0,0,0,.384.284q2.673,1.559,5.343,3.122l1.29.739c-.008.042-.017.088-.025.129H81.738c-.171-.008-.346-.017-.518-.017-3.243,0-6.486-.008-9.734,0-.376,0-.509-.075-.5-.484.033-.885,0-1.77,0-2.655a.067.067,0,0,0,0-.1c.013-1.073.013-1.073-1.048-1.035-.088,0-.171.017-.259.021l-.309-.013c-.755,0-.76,0-.743.735a2.173,2.173,0,0,1-.622,1.59c-1.3,1.415-2.7,2.738-4.04,4.111-.163.167-.392.288-.467.534l0,0c-.075-.017-.1.029-.117.092-.392.28-.664.7-1.085.952-.079,0-.159,0-.163.1l0,0c-.38-.042-.735.184-1.131.1a3.066,3.066,0,0,1-1.528-.835c-.672-.655-1.327-1.327-2.016-1.966-.267-.246-.568-.543-1.014-.359a26.255,26.255,0,0,0-2.471,1.048c-.9.217-1.135.434-1.194,1.119-.013.292-.025.584-.033.877a10.536,10.536,0,0,1-.242,3.335,3.141,3.141,0,0,1-1.127.964c-.309.025-.622.071-.931.071-2.709.017-5.418.058-8.122-.067a1.019,1.019,0,0,1-1.018-.735,9.907,9.907,0,0,1-.259-1.21,20.275,20.275,0,0,1-.109-3.222.864.864,0,0,0-.576-.914c-.993-.4-1.962-.856-2.951-1.265-.225-.1-.48-.25-.743-.109a5.434,5.434,0,0,0-1.511,1.336.292.292,0,0,0,.071.038c.008,0,.029-.017.042-.029-.626.538-1.256,1.077-1.882,1.615-.088-.013-.159,0-.163.1l0,0a2.322,2.322,0,0,1-2.387-.584c-1.661-1.628-3.3-3.289-4.942-4.934a2.507,2.507,0,0,1-.885-2.371c.013-.033.029-.067.042-.1l-.071-.013H23.963a.919.919,0,0,0-.15-.017c-1.181-.033-1.181-.033-1.1,1.148,0,.826,0,1.653,0,2.483-.129.292.217.739-.2.9a2.922,2.922,0,0,1-.96.046L9.638,82.93l-.547-.042c1.749-1.269,3.6-2.254,5.393-3.322.634-.1,1.064-.584,1.736-.872-1.907-1.085-3.723-2.12-5.539-3.155l-1.611-1c0-.038.008-.079.013-.117h2.446l5.543-.025c1.4.05,1.139.163,1.131-.956,0-.793,0-1.59,0-2.383.088-.363-.163-.868.109-1.073.246-.188.722-.075,1.094-.1l.038.017.038-.013a2.552,2.552,0,0,0,.309.017c.326,0,.768.109.943-.058s-.113-.58-.134-.9a4.445,4.445,0,0,1-.071-.618c.042-2.684-.109-5.368.079-8.047a2.008,2.008,0,0,1,1.377-1.256,18.112,18.112,0,0,1,2.734-.1,2.445,2.445,0,0,0,1.069-.092c.6.042.8-.4.989-.839.267-.634.518-1.277.81-1.9.747-1.569.7-1.874-.643-3.009-1.165-.985-2.15-2.045-1.828-3.748l0,0c.146-.008.117-.138.154-.217,1.837-2.029,3.84-3.894,5.76-5.839a2.2,2.2,0,0,1,.76-.426,2.431,2.431,0,0,1,2.425.806c.409.426.826.835,1.244,1.252a6.759,6.759,0,0,0,1.1.939.7.7,0,0,0,.685.092,27.172,27.172,0,0,0,2.513-1.069c.455-.121.939-.2,1.081-.764a6.592,6.592,0,0,0,.075-1.544A10.079,10.079,0,0,1,41.055,39.856Zm17.238,7.613c-.075-.008-.125.013-.113.1l0,0c-.117-.033-.2.042-.288.092a2.062,2.062,0,0,1-1.791.167c-1.006-.317-1.945-.8-2.926-1.169a5.614,5.614,0,0,1-1.5-.806,1.817,1.817,0,0,1-.722-1.315c-.092-.9-.067-1.8-.083-2.7a7.18,7.18,0,0,0-.063-1.035c-.046-.3-.15-.4-.459-.4-2.116.013-4.232,0-6.353,0-1.29-.071-1.29-.071-1.261,1.131v.463a7.585,7.585,0,0,1-.409,3.4l0,0c-.071-.008-.1.033-.109.1a6.038,6.038,0,0,1-1.043.885c-.943.376-1.9.735-2.834,1.135a2.816,2.816,0,0,1-3.16-.351c-.255-.209-.513-.409-.747-.643q-.808-.808-1.624-1.615c-.28-.275-.534-.346-.826.008-.25.309-.547.58-.822.868-1.357,1.269-2.659,2.6-3.944,3.94-.388.4-.367.7.033,1.114.459.472.935.931,1.432,1.361a3.046,3.046,0,0,1,.993,3.677c-.563,1.24-.96,2.55-1.645,3.736a4.322,4.322,0,0,1-1.152.96,17.126,17.126,0,0,1-3.331.221c-1.231-.142-1.323-.058-1.227,1.127,0,2.033-.013,4.065-.013,6.1,0,.138.071.275.063.409-.021.4.2.442.526.442,2.6-.008,5.213,0,7.818,0q3.625-.006,7.246-.017,3.487.013,6.975.017c2.913,0,5.831-.013,8.744-.017H70.172c1.419.025,1.131.179,1.131-.927q.006-3.149.008-6.3c0-.134-.067-.271-.067-.4-.008-.342-.192-.426-.505-.426-.868,0-1.736-.042-2.6-.054a3.065,3.065,0,0,1-3.2-2.342,10.829,10.829,0,0,0-.559-1.281,4.664,4.664,0,0,1-.459-3.585l0,0c.146-.025.138-.125.113-.234.522-.522,1.043-1.039,1.565-1.561a10.15,10.15,0,0,0,.943-.952c.355-.351.275-.593-.033-.906-1.44-1.444-2.863-2.905-4.3-4.353a7.328,7.328,0,0,0-.659-.584c-.113-.092-.234-.213-.4-.075a4.282,4.282,0,0,0-1.215,1.235c-.054.054-.113.1-.167.159h-.05c.008,0,.013.013.021.017-.422.351-.839.7-1.261,1.052-.079.029-.167.046-.188.15Zm-7.354,40.57a14.6,14.6,0,0,1,.246-3.74,3.993,3.993,0,0,1,1.67-1.465c.092,0,.2.025.2-.121l0,0a17.774,17.774,0,0,0,2.417-.877,2.714,2.714,0,0,1,2.926.334A19.541,19.541,0,0,1,60.2,83.886c1.11,1.1,1.106,1.106,2.12-.063.013-.013.013-.033.017-.05,1.089-1,2.112-2.058,3.13-3.122a5.657,5.657,0,0,0,1.173-1.29H29.739c-.154,0-.313.013-.467.021H27.039c.438.434.8.793,1.156,1.152q1.878,1.9,3.761,3.79c.267.271.5.346.81.008.242-.259.551-.459.776-.743a12.292,12.292,0,0,1,2.4-2c.092,0,.192.008.2-.121h0a4.194,4.194,0,0,1,2.083.313c.935.4,1.887.781,2.826,1.177a2.513,2.513,0,0,1,1.707,2.625,15.689,15.689,0,0,0,.075,2.968c.042.288.138.417.455.43,2.17.067,4.341.117,6.515-.013.134,0,.271.017.4.017.7,0,.73-.029.739-.743A.809.809,0,0,0,50.939,88.039ZM52.6,76.77c.989,0,1.978-.013,2.972.008.3,0,.422-.063.459-.384.175-1.377.392-2.751.572-4.124.142-1.069.125-1.06-.947-1.023-.267.008-.359.1-.392.355-.125.981-.28,1.958-.409,2.938-.117.906-.1.889-.989.893-.334,0-.413-.079-.359-.409.154-.939.275-1.887.413-2.83s.138-.922-.826-.947c-.392-.013-.5.125-.543.488-.113.947-.263,1.891-.4,2.834-.129.906-.129.893-1.069.864-.25-.008-.326-.054-.28-.321.15-.943.271-1.887.413-2.834.159-1.069.163-1.06-.935-1.031-.255.008-.371.071-.409.334-.213,1.6-.434,3.2-.668,4.8-.05.338.058.409.376.4C50.584,76.757,51.59,76.77,52.6,76.77Zm13.348-2.809c.021.017.042.029.067.046-.058.288-.125.572-.175.86s-.088.584-.129.877c-.15,1.069-.15,1.056.939,1.035.292,0,.367-.1.4-.384q.313-2.373.68-4.742c.054-.351-.058-.38-.363-.413a1.31,1.31,0,0,0-1.407.689c-.493.781-1.081,1.5-1.628,2.25.134-.634.154-1.269.259-1.895.179-1.069.175-1.064-.927-1.039-.242,0-.376.038-.413.321-.217,1.636-.455,3.268-.68,4.9-.017.109-.071.234.1.3a1.61,1.61,0,0,0,1.519-.442C64.779,75.543,65.364,74.75,65.948,73.961Zm-30.161-.109c-.079.43-.134.714-.184,1s-.092.584-.138.872c-.167,1.077-.167,1.069.918,1.052.275,0,.388-.067.426-.363.213-1.6.455-3.2.68-4.8.017-.109.083-.242-.042-.338a2.043,2.043,0,0,0-1.365.184c-.584.8-1.16,1.6-1.749,2.4-.083.113-.083.317-.33.292a3.532,3.532,0,0,0,.2-.893c.029-.309.083-.618.138-.927.2-1.156.2-1.156-.968-1.085h-.05c-.188-.013-.271.063-.3.263-.23,1.649-.467,3.3-.7,4.95-.017.129-.063.263.154.313a1.439,1.439,0,0,0,1.565-.563C34.6,75.463,35.149,74.716,35.787,73.852Zm4.9-.526c-.781,0-.776,0-.676-.743.021-.154.029-.313.054-.467.138-.868.138-.835-.755-.881-.467-.025-.58.154-.634.563-.163,1.327-.355,2.646-.543,3.969-.142,1.014-.15.993.86,1.01.367,0,.48-.125.5-.467.025-.4.113-.793.146-1.19.029-.309.125-.438.476-.434,1.119.008,1.119-.008.973,1.127a.2.2,0,0,0,0,.05c-.109.906-.109.881.822.914.417.017.518-.138.563-.513.167-1.327.359-2.65.555-3.969.163-1.114.167-1.1-.968-1.052-.275.013-.346.113-.371.367-.042.467-.142.927-.188,1.39-.021.238-.092.355-.342.33A4.365,4.365,0,0,0,40.687,73.326Zm5.931-2.158A2.441,2.441,0,0,0,44.047,72.9c-.154.73-.238,1.473-.321,2.216a1.288,1.288,0,0,0,.413,1.135,2.526,2.526,0,0,0,2.5.467A2.056,2.056,0,0,0,48.288,75.1c.142-.714.234-1.44.309-2.166a1.428,1.428,0,0,0-.885-1.511A2.657,2.657,0,0,0,46.619,71.168Zm-14.237.083a11.559,11.559,0,0,1-1.16-.008A1.029,1.029,0,0,0,30.2,71.7c-.367.488-.8.927-1.2,1.39a2.571,2.571,0,0,1,.013-.881c.146-.96.15-.943-.81-.964-.359-.008-.522.067-.568.459-.167,1.382-.376,2.755-.559,4.132-.125.956-.117.935.881.947.351,0,.447-.121.48-.438.046-.476.129-.952.217-1.553.367.63.668,1.152.977,1.665.083.142.134.321.363.313.5-.013,1,0,1.594,0-.555-.877-1.052-1.682-1.574-2.471a.4.4,0,0,1,.054-.609C30.82,72.921,31.547,72.132,32.381,71.252ZM59.115,73.23c.058-.451.092-.772.138-1.089.134-.9.138-.872-.776-.906-.426-.017-.555.134-.605.538-.163,1.327-.359,2.65-.547,3.974-.15,1.043-.15,1.023.889,1.035.363,0,.438-.15.467-.447.05-.476.129-.952.213-1.553.367.634.668,1.156.977,1.674.075.129.117.309.313.313.522,0,1.048,0,1.649,0-.543-.86-1-1.64-1.515-2.375-.246-.351-.179-.538.1-.818.73-.73,1.423-1.494,2.208-2.325a9.607,9.607,0,0,1-.993,0,1.242,1.242,0,0,0-1.277.568C60,72.283,59.583,72.7,59.115,73.23Z" transform="translate(-7.847 -37.576)" fill="#030307"/><path d="M163.458,94.166c-2.884,0-5.773,0-8.657.017-.384,0-.451-.134-.447-.48.021-1.094-.013-2.191.017-3.285.013-.426-.134-.538-.538-.518-.538.029-1.077,0-1.615.008-.246,0-.4-.017-.3-.346a4.761,4.761,0,0,0,.167-1.44c-.013-2.07-.008-4.136-.025-6.207a5.308,5.308,0,0,0-.438-2.225,1.086,1.086,0,0,0-.914-.672,28.346,28.346,0,0,0-2.918-.092c-2.037-.075-1.82-.2-2.421-1.619a20.283,20.283,0,0,1-.8-2.029A1.112,1.112,0,0,1,144.834,74c.43-.388.718-.931,1.3-1.148-.639.718-.363,1.473-.071,2.212.28.71.6,1.4.889,2.1a1.113,1.113,0,0,0,.977.73,9.6,9.6,0,0,0,1.3.092c.609,0,1.215-.008,1.824,0,1.582.042,2.079.48,2.179,2.07.163,2.55.063,5.1.088,7.655a1.708,1.708,0,0,1-.1.668c-.263.609.088.6.518.58.484-.021.973.013,1.457-.013.326-.017.417.1.413.417-.017,1.11.017,2.225-.017,3.335-.017.455.138.53.551.53,2.692-.017,5.384-.008,8.077-.008h.6C164.372,93.661,163.829,93.791,163.458,94.166Z" transform="translate(-86.737 -57.577)" fill="#5c60bb"/><path d="M71.723,147.1c-.013.008-.029.033-.042.029a.381.381,0,0,1-.071-.038,5.434,5.434,0,0,1,1.511-1.336c.263-.142.513.017.743.109.989.409,1.958.864,2.951,1.265a.859.859,0,0,1,.576.914,20.276,20.276,0,0,0,.109,3.222,9.744,9.744,0,0,0,.259,1.21,1.022,1.022,0,0,0,1.018.735c2.709.125,5.414.083,8.122.067.309,0,.622-.046.931-.071a1.914,1.914,0,0,1-1.978,1.223c-2.763.021-5.526.071-8.289-.075-.618-.033-.952-.472-1.106-1.24a18.073,18.073,0,0,1-.2-3.736,1.073,1.073,0,0,0-.755-1.181c-.922-.346-1.82-.764-2.721-1.165A.91.91,0,0,0,71.723,147.1Z" transform="translate(-44.283 -100.016)" fill="#fcaa36"/><path d="M104.758,43.872a2.686,2.686,0,0,1-.2.234c-.81.764-1.039.8-2.066.355-.793-.346-1.578-.71-2.383-1.023a.958.958,0,0,1-.7-1.039,19.784,19.784,0,0,0-.167-3.581,3.308,3.308,0,0,0-.275-.939,1.17,1.17,0,0,0-1.119-.609c-2.88-.088-5.76-.083-8.64-.008a1.858,1.858,0,0,1,1.816-.973c2.759-.042,5.518-.054,8.277.054.655.025,1.052.6,1.2,1.473a25.694,25.694,0,0,1,.179,3.84.694.694,0,0,0,.493.743C102.379,42.853,103.506,43.521,104.758,43.872Z" transform="translate(-54.537 -36.257)" fill="#5c60bb"/><path d="M153.979,133.976c.088-.008.171-.021.259-.021,1.06-.038,1.06-.038,1.048,1.035-.013.008-.033.021-.029.025a.333.333,0,0,0,.033.067c0,.885.029,1.77,0,2.655-.017.4.121.484.5.484,3.243-.013,6.486-.008,9.734,0,.171,0,.346.013.518.017.568.346,1.139.689,1.707,1.035a.671.671,0,0,0-.021.088h-.5c-4.17,0-8.339,0-12.509.017-.455,0-.593-.1-.576-.572.038-1.094,0-2.187.008-3.281,0-.292-.046-.488-.4-.4C153.746,134.723,154.171,134.414,153.979,133.976Z" transform="translate(-92.139 -93.17)" fill="#fcaa36"/><path d="M44.592,134.01h1.031c.008.038.021.075.029.113a2.507,2.507,0,0,0,.885,2.371c1.645,1.645,3.281,3.306,4.942,4.934a2.324,2.324,0,0,0,2.387.584c-.977,1.306-2.087,1.841-3.448.609a74.689,74.689,0,0,1-5.351-5.372c-.171-.192-.321-.4-.48-.605a2.972,2.972,0,0,1-.033-1.494Z" transform="translate(-28.473 -93.209)" fill="#fcaa36"/><path d="M139.829,57.233c-.054-.259.159-.38.3-.5a2.226,2.226,0,0,0,.017-3.235c-.68-.639-1.311-1.331-1.97-1.991-.989-.993-1.991-1.974-2.972-2.976a2.871,2.871,0,0,0-2.229-.906c1.119-1.206,2.166-1.248,3.4-.088s2.375,2.375,3.581,3.548a20.229,20.229,0,0,1,1.732,1.857,1.868,1.868,0,0,1,.138,2.233A6.079,6.079,0,0,1,139.829,57.233Z" transform="translate(-80.038 -42.34)" fill="#5c60bb"/><path d="M7.926,144.9l11.912.013c0,1.131,0,1.127-1.148,1.127q-5.967-.006-11.933,0H6.14C6.816,145.605,7.371,145.251,7.926,144.9Z" transform="translate(-6.14 -99.553)" fill="#fcaa36"/><path d="M45.845,64.45c-.321,1.7.668,2.763,1.828,3.748,1.34,1.135,1.386,1.444.643,3.009-.3.622-.543,1.265-.81,1.9l-.626-.013a3.515,3.515,0,0,1,.417-1,1.745,1.745,0,0,0-.513-2.546c-.413-.367-.822-.747-1.223-1.131a2.706,2.706,0,0,1-.885-2.337A2.216,2.216,0,0,1,45.845,64.45Z" transform="translate(-28.582 -52.683)" fill="#fcaa36"/><path d="M116.68,147.06a26.728,26.728,0,0,1,2.471-1.048c.447-.179.743.113,1.014.359.689.634,1.344,1.306,2.016,1.966a3.066,3.066,0,0,0,1.528.835c.4.088.747-.138,1.131-.1a2.271,2.271,0,0,1-3.7.505c-.572-.534-1.106-1.106-1.661-1.657-.985-.977-1.043-.985-2.3-.434-.159.071-.309.154-.463.234l-.029-.033Z" transform="translate(-70.542 -100.169)" fill="#fcaa36"/><path d="M9.067,127.19c1.816,1.035,3.631,2.07,5.539,3.155-.672.288-1.1.776-1.736.872-1.419-.939-2.938-1.715-4.4-2.584-.722-.43-1.448-.856-2.17-1.286.013-.054.021-.1.033-.159Z" transform="translate(-6.233 -89.235)" fill="#fcaa36"/><path d="M179.473,136.629q-2.673-1.559-5.343-3.122c.434-.275.868-.547,1.3-.822.046,0,.088,0,.134,0l6.445,3.757c0,.033,0,.067-.008.1-.643,0-1.286-.008-1.928,0C179.869,136.545,179.652,136.466,179.473,136.629Z" transform="translate(-104.012 -92.434)" fill="#5c60bb"/><path d="M71.448,49.538a26.077,26.077,0,0,1-2.513,1.069.7.7,0,0,1-.685-.092,6.425,6.425,0,0,1-1.1-.939c-.413-.417-.835-.831-1.244-1.252a2.431,2.431,0,0,0-2.425-.806A2.263,2.263,0,0,1,67.1,47.33c.534.568,1.11,1.094,1.649,1.657a1.542,1.542,0,0,0,2.15.413,3.239,3.239,0,0,1,.526-.217C71.431,49.3,71.44,49.421,71.448,49.538Z" transform="translate(-39.547 -42.233)" fill="#5c60bb"/><path d="M34.981,90.68c-.188,2.68-.038,5.363-.079,8.047a4.445,4.445,0,0,0,.071.618c-1.123.008-1.123.008-1.114.935l-.038.013-.038-.017q-.019-3.669-.033-7.338a7.674,7.674,0,0,1,.071-.877A1.639,1.639,0,0,1,34.981,90.68Z" transform="translate(-22.226 -67.964)" fill="#fcaa36"/><path d="M18.685,123.178l-5.543.025c-.313-.4-.856-.488-1.3-.943h6.824l.029.017C18.694,122.577,18.689,122.878,18.685,123.178Z" transform="translate(-9.461 -86.363)" fill="#5c60bb"/><path d="M113.17,154.826a10.669,10.669,0,0,0,.242-3.335c0-.292.021-.584.033-.877.4-.163.8-.326,1.194-.484l.029.033a17.64,17.64,0,0,1-.113,3.218A1.824,1.824,0,0,1,113.17,154.826Z" transform="translate(-68.497 -102.601)" fill="#5c60bb"/><path d="M83.835,41.72a10.058,10.058,0,0,0-.15,2.717,6.6,6.6,0,0,1-.075,1.544c-.376.013-.672.284-1.043.317a13.338,13.338,0,0,1,.029-2.943A1.877,1.877,0,0,1,83.835,41.72Z" transform="translate(-50.627 -39.44)" fill="#fcaa36"/><path d="M145.666,134c.2.434-.23.743-.23,1.139-1.736,1.941-3.652,3.706-5.468,5.568a.594.594,0,0,1-.488.25c.075-.25.3-.367.467-.534,1.34-1.377,2.738-2.7,4.04-4.111a2.157,2.157,0,0,0,.622-1.59c-.017-.735-.008-.735.743-.735C145.457,133.994,145.561,134,145.666,134Z" transform="translate(-83.825 -93.197)" fill="#5c60bb"/><path d="M43.8,86.021a2.5,2.5,0,0,1-1.069.092,17.581,17.581,0,0,0-2.734.1,2.326,2.326,0,0,1,2.074-1.035c.672-.017,1.344.008,2.016.013Z" transform="translate(-25.867 -64.758)" fill="#5c60bb"/><path d="M42.973,136.723a3.07,3.07,0,0,0,.033,1.494c-.058.952-.058.952-1.052.964-.067,0-.138.008-.2.013,0-.826,0-1.653,0-2.483Z" transform="translate(-26.887 -94.782)" fill="#5c60bb"/><path d="M29.344,116.444c0,.793,0,1.59,0,2.383l-1.119.05-.029-.017c.008-.618.046-1.24.008-1.857-.029-.463.113-.63.568-.563A3.678,3.678,0,0,0,29.344,116.444Z" transform="translate(-18.992 -82.964)" fill="#fcaa36"/><path d="M177.076,129.12c-.046,0-.088,0-.134,0a.32.32,0,0,1-.213-.3q1.941-1.127,3.882-2.25c.179.025.359.054.634.092C179.806,127.513,178.441,128.319,177.076,129.12Z" transform="translate(-105.527 -88.874)" fill="#fcaa36"/><path d="M49.11,86.006l.288-.826a.556.556,0,0,1,.075-.029l.626.013C49.911,85.613,49.711,86.047,49.11,86.006Z" transform="translate(-31.175 -64.743)" fill="#d68727"/><path d="M82.578,52.257c.367-.038.668-.309,1.043-.317-.146.559-.63.639-1.081.764-.008-.117-.017-.234-.021-.351A.734.734,0,0,1,82.578,52.257Z" transform="translate(-50.64 -45.394)" fill="#d68727"/><path d="M47.625,63.93c-.038.083-.008.213-.154.217C47.42,64.005,47.512,63.959,47.625,63.93Z" transform="translate(-30.211 -52.38)" fill="#fcaa36"/><path d="M139.21,150.779c.013-.063.042-.1.117-.092C139.331,150.775,139.273,150.779,139.21,150.779Z" transform="translate(-83.668 -102.924)" fill="#5c60bb"/><path d="M66.98,153.025c0-.113.079-.121.163-.1C67.109,152.988,67.08,153.063,66.98,153.025Z" transform="translate(-41.586 -104.223)" fill="#fcaa36"/><path d="M136.22,153.283c.008-.109.083-.109.163-.1C136.349,153.245,136.32,153.324,136.22,153.283Z" transform="translate(-81.926 -104.376)" fill="#fcaa36"/><path d="M85.883,137.631c-.113-.159-.284-.1-.43-.1q-9.141-.006-18.282,0c-.088,0-.171.013-.259.021H58.594c-.054-.017-.109-.033-.167-.054-.217-.451-.7-.672-.947-1.1.154-.008.313-.021.467-.021H94.853a5.855,5.855,0,0,1-1.173,1.29c-.092-.238-.3-.129-.447-.134q-3.143-.013-6.286,0c-.163,0-.351-.063-.484.1C86.272,137.631,86.08,137.631,85.883,137.631Z" transform="translate(-36.051 -94.584)" fill="#fcaa36"/><path d="M144.826,88.836c0-1.72.021-3.439.008-5.159,0-.755-.1-.826-.851-.814a20.11,20.11,0,0,1-3.322-.184,2.582,2.582,0,0,1-2-1.715c-.342-.814-.71-1.615-1.031-2.438a3.888,3.888,0,0,1-.3-2.475,3.025,3.025,0,0,1,1.252-1.611,4.664,4.664,0,0,0,.459,3.585,9.928,9.928,0,0,1,.559,1.281,3.065,3.065,0,0,0,3.2,2.342c.868.013,1.736.05,2.6.054.313,0,.5.083.505.426,0,.134.067.271.067.4q0,3.149-.008,6.3l-1.119.025Z" transform="translate(-82.518 -58.503)" fill="#fcaa36"/><path d="M106.9,50.175a3.008,3.008,0,0,1-3.635,1.281c-1.048-.4-2.079-.856-3.114-1.294a4.044,4.044,0,0,1-1.006-.643,1.679,1.679,0,0,1-.609-1.16c-.134-1.077-.063-2.154-.1-3.226-.029-.985-.029-.993-.977-.993-1.582,0-3.16.008-4.742.013l-.029-.033c.008-.371.017-.743.029-1.114,2.116,0,4.232,0,6.353,0,.309,0,.413.109.459.4a7.178,7.178,0,0,1,.063,1.035c.017.9-.013,1.8.083,2.7a1.8,1.8,0,0,0,.722,1.315,5.5,5.5,0,0,0,1.5.806c.985.371,1.92.856,2.926,1.169a2.065,2.065,0,0,0,1.791-.167A.348.348,0,0,1,106.9,50.175Z" transform="translate(-56.565 -40.186)" fill="#fcaa36"/><path d="M42.058,94.594v5.05c0,.05,0,.1,0,.154.079.751.079.751.835.751q6.768.006,13.532.008c.013.3.021.609.033.914q-3.625.006-7.246.017c-2.6,0-5.213,0-7.818,0-.326,0-.547-.046-.526-.442.008-.134-.063-.271-.063-.409,0-2.033.008-4.065.013-6.1.4,0,.806,0,1.206,0A.057.057,0,0,0,42.058,94.594Z" transform="translate(-26.339 -70.213)" fill="#5c60bb"/><path d="M75.272,139.19H76.52c1.1.455,2.2.906,3.3,1.361.129.054.255.1.38.163a2.473,2.473,0,0,1,1.632,2.563,18.507,18.507,0,0,0,.079,2.963c.033.267.088.451.426.455,1.753.017,3.506.092,5.259.021l.033.038v.868c-2.17.129-4.341.079-6.515.013-.317-.008-.409-.142-.455-.43a16.034,16.034,0,0,1-.075-2.968,2.512,2.512,0,0,0-1.707-2.625c-.939-.4-1.891-.772-2.826-1.177a4.2,4.2,0,0,0-2.083-.313C74.283,139.641,74.838,139.5,75.272,139.19Z" transform="translate(-45.658 -96.227)" fill="#5c60bb"/><path d="M56.335,55.975c-.943.943-1.9,1.878-2.826,2.838-.488.505-.455.714.021,1.269.53.618,1.181,1.11,1.745,1.695a2.853,2.853,0,0,1,.526,3.485,21.2,21.2,0,0,1-1.569,3.481A2.229,2.229,0,0,1,53,69.728c.685-1.185,1.077-2.5,1.645-3.736a3.046,3.046,0,0,0-.993-3.677c-.5-.43-.973-.889-1.432-1.361-.4-.409-.422-.705-.033-1.114,1.281-1.344,2.584-2.671,3.944-3.94C56.2,55.921,56.264,55.95,56.335,55.975Z" transform="translate(-32.806 -47.701)" fill="#5c60bb"/><path d="M136.584,60.485a.569.569,0,0,0-.15-.614c-.956-1.006-1.9-2.02-2.938-2.947-.7-.626-1.244-1.4-1.983-1.991a.476.476,0,0,0-.593-.083,4.23,4.23,0,0,1,1.215-1.235c.171-.138.292-.013.4.075a7.328,7.328,0,0,1,.659.584c1.436,1.448,2.859,2.909,4.3,4.353.309.309.388.555.033.906A10.193,10.193,0,0,1,136.584,60.485Z" transform="translate(-78.838 -46.334)" fill="#fcaa36"/><path d="M62.225,54.421l-.2-.079c.275-.288.572-.559.822-.868.288-.355.547-.284.826-.008.543.538,1.085,1.073,1.624,1.615.234.234.493.434.747.643a2.832,2.832,0,0,0,3.16.351c.935-.4,1.887-.755,2.834-1.135a2.862,2.862,0,0,1-1.494,1.29c-.956.392-1.92.76-2.884,1.139a2.938,2.938,0,0,1-3.243-.889c-.589-.534-1.131-1.119-1.695-1.682A1.548,1.548,0,0,0,62.225,54.421Z" transform="translate(-38.696 -46.147)" fill="#fcaa36"/><path d="M119.665,139.39a3.375,3.375,0,0,1,1.882,1.023c.76.68,1.469,1.419,2.2,2.129a.177.177,0,0,1-.017.05c-1.014,1.165-1.014,1.165-2.12.063a19,19,0,0,0-1.811-1.711,2.714,2.714,0,0,0-2.926-.334,17.57,17.57,0,0,1-2.417.877c.1-.334.409-.467.672-.589a26.79,26.79,0,0,1,3.957-1.5C119.277,139.39,119.469,139.39,119.665,139.39Z" transform="translate(-69.248 -96.343)" fill="#5c60bb"/><path d="M129.9,108.92h9.98l.029.029c0,.3-.008.6-.013.9H128.75c0-.083.013-.167.017-.25.71.179.8.138,1.043-.5C129.835,109.041,129.873,108.983,129.9,108.92Z" transform="translate(-77.574 -78.591)" fill="#5c60bb"/><path d="M78.253,109.659c-.013-.3-.021-.609-.033-.914l.046-.021c.384-.038.793.154,1.148-.134a.98.98,0,0,0,1.018.559c2.308-.063,4.616.013,6.925-.054,2.237-.063,4.479,0,6.72.008-.033.184-.071.371-.1.555-2.913,0-5.831.017-8.744.017C82.9,109.675,80.578,109.663,78.253,109.659Z" transform="translate(-48.134 -78.399)" fill="#d68727"/><path d="M57.1,139.1q1.409,1.421,2.813,2.838a.605.605,0,0,0,.346.213c-.225.284-.538.484-.776.743-.313.338-.543.263-.81-.008q-1.878-1.9-3.761-3.79c.676-.017,1.348-.038,2.024-.054A1.268,1.268,0,0,0,57.1,139.1Z" transform="translate(-34.554 -96.139)" fill="#5c60bb"/><path d="M90.42,45.723a9.906,9.906,0,0,1-.109,1.958,2.45,2.45,0,0,1-1.561,1.887,7.585,7.585,0,0,0,.409-3.4v-.463c.409,0,.822-.013,1.231-.017Z" transform="translate(-54.269 -41.753)" fill="#5c60bb"/><path d="M106.61,151.965c.017-.568.008-1.135.058-1.7a2.517,2.517,0,0,1,1.348-2.066,14.6,14.6,0,0,0-.246,3.74,6.779,6.779,0,0,0-1.127.058Z" transform="translate(-64.675 -101.476)" fill="#fcaa36"/><path d="M122.391,109.42c0,.083-.013.167-.017.25h-3.16c-.472-.217-.943-.43-1.415-.647.121-.138.238-.275.359-.413a5.626,5.626,0,0,0,2.529.046A11.113,11.113,0,0,1,122.391,109.42Z" transform="translate(-71.194 -78.411)" fill="#d68727"/><path d="M47.082,91.32a1.892,1.892,0,0,1-1.536,1.194c-.593.083-1.19.138-1.786.2a.064.064,0,0,1-.029-.05c.008-.376.013-.747.021-1.123A17.151,17.151,0,0,0,47.082,91.32Z" transform="translate(-28.04 -68.337)" fill="#fcaa36"/><path d="M55.321,137.528c-.676.017-1.348.038-2.024.054-.359-.359-.718-.718-1.156-1.152h2.233C54.615,136.852,55.1,137.073,55.321,137.528Z" transform="translate(-32.94 -94.619)" fill="#d68727"/><path d="M42.02,91.788c-.008.376-.013.747-.021,1.123-.4,0-.806,0-1.206,0C40.7,91.73,40.789,91.646,42.02,91.788Z" transform="translate(-26.314 -68.58)" fill="#d68727"/><path d="M42.941,135.108l-1.215-.013c-.083-1.177-.083-1.181,1.1-1.148.05,0,.1.013.15.017C42.962,134.349,42.949,134.728,42.941,135.108Z" transform="translate(-26.855 -93.168)" fill="#d68727"/><path d="M90.949,44.1c-.409,0-.822.013-1.231.017-.033-1.2-.033-1.2,1.261-1.131C90.97,43.357,90.958,43.728,90.949,44.1Z" transform="translate(-54.828 -40.162)" fill="#d68727"/><path d="M34,112.375c-.008-.927-.008-.927,1.114-.935.021.317.321.718.134.9s-.618.054-.943.058C34.207,112.4,34.1,112.379,34,112.375Z" transform="translate(-22.37 -80.059)" fill="#d68727"/><path d="M28.253,122.23l1.119-.05c.013,1.119.275,1.006-1.131.956C28.244,122.831,28.248,122.531,28.253,122.23Z" transform="translate(-19.016 -86.317)" fill="#d68727"/><path d="M155.47,109.862c0-.3.008-.6.013-.9l1.119-.025C156.6,110.042,156.889,109.887,155.47,109.862Z" transform="translate(-93.141 -78.603)" fill="#d68727"/><path d="M106.69,157.218a6.356,6.356,0,0,1,1.127-.058,1.63,1.63,0,0,1,.021.2c-.008.714-.042.747-.739.743-.134,0-.271-.013-.4-.017C106.69,157.8,106.69,157.511,106.69,157.218Z" transform="translate(-64.721 -106.696)" fill="#d68727"/><path d="M116.724,109.6c.472.217.943.43,1.415.647H115.96c.033-.184.071-.371.1-.555C116.286,109.658,116.507,109.629,116.724,109.6Z" transform="translate(-70.122 -78.987)" fill="#5c60bb"/><path d="M115.014,149.224c-.4.163-.8.326-1.194.484.063-.685.3-.906,1.194-1.119Z" transform="translate(-68.875 -101.703)" fill="#d68727"/><path d="M174.679,131.97a.32.32,0,0,0,.213.3c-.434.275-.868.547-1.3.822a.476.476,0,0,1-.384-.284C173.7,132.529,174.187,132.25,174.679,131.97Z" transform="translate(-103.476 -92.02)" fill="#d68727"/><path d="M140.443,74.13c-.063-.125.042-.171.113-.23C140.585,74.009,140.589,74.1,140.443,74.13Z" transform="translate(-84.375 -58.188)" fill="#fcaa36"/><path d="M73.48,141.523a.163.163,0,0,1,.2-.121C73.672,141.531,73.572,141.518,73.48,141.523Z" transform="translate(-45.373 -97.512)" fill="#5c60bb"/><path d="M113.98,144.5c.046-.075.088-.154.2-.121C114.176,144.525,114.072,144.5,113.98,144.5Z" transform="translate(-68.969 -99.245)" fill="#5c60bb"/><path d="M127.168,59.61c-.008.117-.054.188-.188.15C127,59.656,127.089,59.639,127.168,59.61Z" transform="translate(-76.542 -49.863)" fill="#fcaa36"/><path d="M130.45,57.05v.025a.267.267,0,0,1-.029-.008c-.008,0-.013-.013-.021-.017Z" transform="translate(-78.535 -48.371)" fill="#fcaa36"/><path d="M47.259,134.113c-.008-.038-.021-.075-.029-.113l.071.013A.557.557,0,0,1,47.259,134.113Z" transform="translate(-30.079 -93.203)" fill="#d68727"/><path d="M157.383,136.552a.5.5,0,0,1-.033-.067s.021-.017.029-.025A.059.059,0,0,1,157.383,136.552Z" transform="translate(-94.236 -94.636)" fill="#d68727"/><path d="M126.84,59.959c.013.092-.013.138-.113.1C126.715,59.972,126.765,59.955,126.84,59.959Z" transform="translate(-76.394 -50.066)" fill="#fcaa36"/><path d="M88.609,54.969c0,.079-.05.088-.109.1C88.508,55,88.538,54.96,88.609,54.969Z" transform="translate(-54.124 -47.158)" fill="#5c60bb"/><path d="M95.462,86.8c-.221.029-.438.063-.659.092-2.241-.008-4.483-.071-6.72-.008-2.308.063-4.616-.013-6.925.054a.98.98,0,0,1-1.018-.559c-.013-.054-.025-.109-.033-.167a1.181,1.181,0,0,0,0-.626l.025-5.935a2.208,2.208,0,0,1,.142-.964c.175-.38.538-.355.843-.438a.879.879,0,0,0-.029-.1c-.1-.1-.2-.2-.292-.292a4.214,4.214,0,0,1-1.323-3.218A8.031,8.031,0,0,1,80,72.649l0,0c.083,0,.1-.054.1-.121l-.008.013c.029-.033.054-.071.083-.1a5.587,5.587,0,0,1,1.92-1.653c.217-.054.438-.1.647-.163a3.331,3.331,0,0,1,1.978-.008,4.549,4.549,0,0,1,2.909,2.463c.025.113.038.267.159.288.1.021.134-.125.179-.213.1-.192.192-.388.288-.58.2-.234.4-.467.605-.7a7.64,7.64,0,0,1,1.348-.993,8.473,8.473,0,0,0,1.114-.217A4.187,4.187,0,0,1,95.6,73.02a4.331,4.331,0,0,1-.781,4.792c-.1.1-.267.175-.238.367,1.131.046,1.244.146,1.29,1.3.017.367.142.288.376.188,1.3-.568,2.609-1.135,3.923-1.674.609-.25.889-.075.914.58a74.621,74.621,0,0,1,.1,7.73c0,.079,0,.154.008.234-.029.063-.067.121-.092.184-.242.63-.334.676-1.043.5a11.532,11.532,0,0,0-1.7-.764,11.049,11.049,0,0,0-1.665-.714c-.217-.138-.442-.33-.7-.25-.142.046-.042.28-.025.43-.046.163-.1.321-.142.484C95.7,86.527,95.583,86.665,95.462,86.8ZM88.3,77.34c-.109-.179-.221-.359-.33-.538s-.063-.451-.309-.593a9.1,9.1,0,0,1-.927,1.448,1.2,1.2,0,0,0-.534.626c.3-.017.563-.029.818-.046H89A4.335,4.335,0,0,0,88.3,77.34Zm-5.864-2.709a1.243,1.243,0,0,0,1.419,1.386,1.059,1.059,0,0,0,1.064-.851,1.253,1.253,0,0,0-1.261-1.653A1.068,1.068,0,0,0,82.431,74.631ZM91.877,76.1a1.04,1.04,0,0,0,1.148-.943c0-1.01-.463-1.544-1.336-1.523a1.167,1.167,0,0,0-1.223,1.119A1.258,1.258,0,0,0,91.877,76.1Z" transform="translate(-48.86 -56.19)" fill="#030307"/><path d="M116.167,85.2a74.621,74.621,0,0,0-.1-7.73c-.025-.659-.3-.831-.914-.58-1.315.543-2.621,1.106-3.923,1.674-.234.1-.359.179-.376-.188-.046-1.156-.159-1.252-1.29-1.3-.029-.192.142-.259.238-.367a4.329,4.329,0,0,0,.781-4.792,4.187,4.187,0,0,0-4.274-2.354,7.4,7.4,0,0,1-1.114.217,4.143,4.143,0,0,1,6.119.367,4.282,4.282,0,0,1-.188,5.543l-.334.371c.083.15.2.083.288.083.751,0,1.039.284,1.039,1.018,0,.6,0,.589.543.355,1.277-.543,2.554-1.085,3.84-1.607.513-.209.751-.046.818.526a11.249,11.249,0,0,1,.129,1.711c-.071,1.649.075,3.293.067,4.938a10.141,10.141,0,0,1-.109,1.29C117.3,85.137,117.136,85.237,116.167,85.2Z" transform="translate(-63.847 -55.101)" fill="#5c60bb"/><path d="M78.513,89.243c.013.054.025.109.033.167-.355.288-.764.1-1.148.134,0-2.049-.021-4.095-.013-6.144,0-.584.255-.822.981-1.006-.288-.33-.589-.639-.847-.977a4.218,4.218,0,0,1,.785-5.739c.021-.017.067,0,.1,0a8.413,8.413,0,0,0-.534,1.987,4.214,4.214,0,0,0,1.323,3.218l.292.292a.655.655,0,0,1,.029.1c-.3.079-.668.054-.843.438a2.208,2.208,0,0,0-.142.964L78.5,88.613A.487.487,0,0,0,78.513,89.243Z" transform="translate(-47.267 -59.219)" fill="#fcaa36"/><path d="M91.295,71.763A4.539,4.539,0,0,0,88.385,69.3a3.364,3.364,0,0,0-1.978.008c-.209.071-.43.109-.647.163a3.994,3.994,0,0,1,5.564-.242,4.471,4.471,0,0,1,.885,1.014c.079.125.121.3.317.313-.2.234-.4.467-.609.7C91.708,71.425,91.5,71.592,91.295,71.763Z" transform="translate(-52.527 -54.878)" fill="#5c60bb"/><path d="M80.822,75.41c0,.067-.013.125-.1.121C80.7,75.443,80.751,75.418,80.822,75.41Z" transform="translate(-49.588 -59.068)" fill="#fcaa36"/><path d="M81.03,75.19c-.029.033-.054.071-.083.1C80.934,75.228,80.967,75.2,81.03,75.19Z" transform="translate(-49.721 -58.94)" fill="#fcaa36"/><path d="M96.35,122.9c-.609,0-.818-.234-.735-.818.075-.53.138-1.064.23-1.59.083-.488.559-.743,1.169-.651.5.075.605.238.53.851-.054.447-.134.889-.2,1.331A.876.876,0,0,1,96.35,122.9Z" transform="translate(-58.259 -84.945)" fill="#030307"/><path d="M119.514,107.01a11.05,11.05,0,0,1,1.665.714,5.626,5.626,0,0,1-2.529-.046c.046-.163.1-.321.142-.484C119.034,107.123,119.347,107.361,119.514,107.01Z" transform="translate(-71.689 -77.478)" fill="#fcaa36"/><path d="M105.82,79.159a1.17,1.17,0,0,1,1.223-1.119c0,.96.5,1.519,1.336,1.523a1.032,1.032,0,0,1-1.148.943A1.28,1.28,0,0,0,105.82,79.159Z" transform="translate(-64.214 -60.6)" fill="#d68727"/><path d="M89.043,79.4a1.045,1.045,0,0,1-1.064.851c-.129-.96-.455-1.277-1.419-1.386a1.074,1.074,0,0,1,1.223-1.123C87.77,78.758,87.95,79,89.043,79.4Z" transform="translate(-52.993 -60.425)" fill="#d68727"/><path d="M96.86,85.668a8.993,8.993,0,0,0,.927-1.448c.246.142.213.4.309.593-.255.054-.526.2-.484.442.038.209.359.071.555.1a1.345,1.345,0,0,0,.259,0,4.258,4.258,0,0,1,.705.9H97.144C97.052,86.057,96.956,85.865,96.86,85.668Z" transform="translate(-58.994 -64.201)" fill="#d68727"/><path d="M90.749,79.4c-1.094-.4-1.277-.639-1.261-1.653A1.252,1.252,0,0,1,90.749,79.4Z" transform="translate(-54.699 -60.431)" fill="#fcaa36"/><path d="M110.086,79.563c-.839,0-1.331-.563-1.336-1.523C109.622,78.018,110.09,78.548,110.086,79.563Z" transform="translate(-65.921 -60.599)" fill="#fcaa36"/><path d="M86.563,80.44c.968.109,1.29.422,1.419,1.386A1.243,1.243,0,0,1,86.563,80.44Z" transform="translate(-52.992 -61.999)" fill="#5c60bb"/><path d="M105.82,80.72a1.29,1.29,0,0,1,1.415,1.348A1.259,1.259,0,0,1,105.82,80.72Z" transform="translate(-64.214 -62.162)" fill="#5c60bb"/><path d="M96.12,87.69c.1.192.192.388.288.58-.259.013-.513.029-.818.046A1.207,1.207,0,0,1,96.12,87.69Z" transform="translate(-58.254 -66.222)" fill="#5c60bb"/><path d="M99.477,86.178a1.346,1.346,0,0,1-.259,0c-.2-.029-.518.109-.555-.1-.046-.238.23-.388.484-.442C99.256,85.819,99.368,86,99.477,86.178Z" transform="translate(-60.042 -65.028)" fill="#fcaa36"/><path d="M119.642,106.638c-.167.351-.484.113-.722.184-.017-.15-.117-.388.025-.43C119.2,106.308,119.43,106.5,119.642,106.638Z" transform="translate(-71.818 -77.106)" fill="#d68727"/><path d="M99.02,76l.622-.509c-.1.192-.188.388-.288.58-.042.088-.075.234-.179.213C99.053,76.266,99.041,76.112,99.02,76Z" transform="translate(-60.253 -59.115)" fill="#d68727"/><path d="M80.831,107.316a.471.471,0,0,1,0-.626A1.181,1.181,0,0,1,80.831,107.316Z" transform="translate(-49.585 -77.292)" fill="#d68727"/></g></g></svg>