<?xml version="1.0" encoding="utf-8"?>
<!-- Generator: Adobe Illustrator 23.0.1, SVG Export Plug-In . SVG Version: 6.00 Build 0)  -->
<svg version="1.1" id="Слой_1" xmlns="http://www.w3.org/2000/svg" xmlns:xlink="http://www.w3.org/1999/xlink" x="0px" y="0px"
	 viewBox="0 0 198.43 198.43" style="enable-background:new 0 0 198.43 198.43;" xml:space="preserve">
<style type="text/css">
	.st0{fill:white;}
	.st1{fill:white;}
	.st2{fill:white;}
	.st3{fill:white;}
</style>
<g>
	<path class="st0" d="M85.7,41.72c0.71-1.54,1.8-2.65,3.51-3.06c6.9-0.19,13.8-0.19,20.7,0.02c1.2,0.04,2.16,0.42,2.68,1.46
		c0.34,0.68,0.53,1.46,0.66,2.25c0.47,2.85,0.45,5.72,0.4,8.58c-0.02,1.32,0.47,2.02,1.67,2.49c1.93,0.75,3.81,1.62,5.71,2.45
		c2.46,1.08,3.01,0.99,4.95-0.85c0.18-0.17,0.32-0.37,0.48-0.56c1.69-1.37,2.99-3.17,4.78-4.42c0.56-0.39,1.15-0.76,1.72-1.14
		c2.1-0.06,3.86,0.66,5.34,2.17c2.35,2.4,4.75,4.75,7.12,7.13c1.58,1.59,3.09,3.24,4.72,4.77c2.36,2.22,2.05,6.05-0.04,7.75
		c-0.35,0.28-0.86,0.57-0.73,1.19c-0.31,0.31-0.62,0.62-0.93,0.93c-1.39,0.52-2.09,1.82-3.11,2.75c-0.97,0.88-1,1.9-0.64,3.07
		c0.51,1.67,1.24,3.26,1.92,4.86c1.44,3.39,0.92,3.69,5.8,3.88c2.33,0.09,4.66-0.11,6.99,0.22c1.05,0.15,1.74,0.64,2.19,1.61
		c0.78,1.7,1.04,3.49,1.05,5.33c0.03,4.96,0.03,9.91,0.06,14.87c0.01,1.17-0.05,2.34-0.4,3.45c-0.25,0.78,0.13,0.83,0.72,0.83
		c1.29-0.02,2.59,0.05,3.87-0.02c0.96-0.05,1.31,0.22,1.29,1.24c-0.07,2.62,0.01,5.25-0.04,7.87c-0.02,0.82,0.14,1.15,1.07,1.15
		c6.91-0.04,13.83-0.03,20.74-0.04c0.47,0.3-0.03,0.35-0.14,0.42c-1.25,0.76-2.52,1.5-3.78,2.24c-3.1,1.8-6.2,3.59-9.3,5.39
		c-1.17,0.67-2.35,1.35-3.52,2.02c0.2,0.49,0.56,0.58,0.92,0.68c4.27,2.49,8.54,4.99,12.8,7.48c1.03,0.59,2.06,1.18,3.09,1.77
		c-0.02,0.1-0.04,0.21-0.06,0.31c-2.26,0-4.52,0-6.79,0c-0.41-0.02-0.83-0.04-1.24-0.04c-7.77,0-15.54-0.02-23.32,0.01
		c-0.9,0-1.22-0.18-1.19-1.16c0.08-2.12,0.01-4.24,0-6.36c0.06-0.08,0.06-0.15-0.01-0.23c0.03-2.57,0.03-2.57-2.51-2.48
		c-0.21,0.01-0.41,0.04-0.62,0.05c-0.25-0.01-0.5-0.02-0.74-0.03c-1.81-0.01-1.82,0-1.78,1.76c0.03,1.49-0.47,2.7-1.49,3.81
		c-3.12,3.39-6.46,6.56-9.68,9.85c-0.39,0.4-0.94,0.69-1.12,1.28c0,0,0.01-0.01,0.01-0.01c-0.18-0.04-0.24,0.07-0.28,0.22
		c-0.94,0.67-1.59,1.68-2.6,2.28c-0.19-0.01-0.38-0.01-0.39,0.25c0,0,0.01-0.01,0.01-0.01c-0.91-0.1-1.76,0.44-2.71,0.23
		c-1.43-0.31-2.63-0.99-3.66-2c-1.61-1.57-3.18-3.18-4.83-4.71c-0.64-0.59-1.36-1.3-2.43-0.86c-1.99,0.8-4.02,1.51-5.92,2.51
		c-2.15,0.52-2.72,1.04-2.86,2.68c-0.03,0.7-0.06,1.4-0.08,2.1c-0.04,2.68,0.31,5.38-0.58,7.99c-0.7,1-1.63,1.74-2.7,2.31
		c-0.74,0.06-1.49,0.17-2.23,0.17c-6.49,0.04-12.98,0.14-19.46-0.16c-1.24-0.06-2.08-0.63-2.44-1.76c-0.3-0.94-0.44-1.93-0.62-2.9
		c-0.47-2.56-0.2-5.15-0.26-7.72c-0.03-1.07-0.32-1.76-1.38-2.19c-2.38-0.96-4.7-2.05-7.07-3.03c-0.54-0.23-1.15-0.6-1.78-0.26
		c-1.45,0.78-2.56,1.96-3.62,3.2c0.06,0.03,0.11,0.08,0.17,0.09c0.02,0.01,0.07-0.04,0.1-0.07c-1.5,1.29-3.01,2.58-4.51,3.87
		c-0.21-0.03-0.38-0.01-0.39,0.25c0,0,0.01-0.01,0.01-0.01c-2.17,0.61-4.14,0.16-5.72-1.4c-3.98-3.9-7.9-7.88-11.84-11.82
		c-1.57-1.57-2.6-3.34-2.12-5.68c0.03-0.08,0.07-0.16,0.1-0.23c-0.06-0.01-0.12-0.02-0.17-0.03c-0.82,0-1.65,0-2.47,0
		c-0.12-0.02-0.24-0.04-0.36-0.04c-2.83-0.08-2.83-0.08-2.63,2.75c0,1.98-0.01,3.96-0.01,5.95c-0.31,0.7,0.52,1.77-0.48,2.16
		c-0.68,0.27-1.53,0.09-2.3,0.11c-9.51-0.01-19.03-0.02-28.54-0.03c-0.39-0.03-0.79-0.06-1.31-0.1c4.19-3.04,8.62-5.4,12.92-7.96
		c1.52-0.23,2.55-1.4,4.16-2.09c-4.57-2.6-8.92-5.08-13.27-7.56c-1.29-0.8-2.57-1.59-3.86-2.39c0.01-0.09,0.02-0.19,0.03-0.28
		c1.95,0,3.91,0,5.86,0c4.43-0.02,8.85-0.04,13.28-0.06c3.36,0.12,2.73,0.39,2.71-2.29c0-1.9-0.01-3.81-0.01-5.71
		c0.21-0.87-0.39-2.08,0.26-2.57c0.59-0.45,1.73-0.18,2.62-0.23c0,0,0.09,0.04,0.09,0.04l0.09-0.03c0.25,0.02,0.49,0.05,0.74,0.04
		c0.78-0.01,1.84,0.26,2.26-0.14c0.44-0.42-0.27-1.39-0.32-2.15c-0.06-0.49-0.18-0.99-0.17-1.48c0.1-6.43-0.26-12.86,0.19-19.28
		c0.55-1.61,1.77-2.49,3.3-3.01c2.17-0.36,4.36-0.22,6.55-0.25c0.85-0.01,1.73,0.17,2.56-0.22c1.44,0.1,1.92-0.95,2.37-2.01
		c0.64-1.52,1.24-3.06,1.94-4.55c1.79-3.76,1.67-4.49-1.54-7.21c-2.79-2.36-5.15-4.9-4.38-8.98c0,0-0.01,0.01-0.01,0.01
		c0.35-0.02,0.28-0.33,0.37-0.52c4.4-4.86,9.2-9.33,13.8-13.99c0.5-0.51,1.18-0.75,1.82-1.02c2.33-0.53,4.21,0.26,5.81,1.93
		c0.98,1.02,1.98,2,2.98,3c0.82,0.82,1.66,1.62,2.64,2.25c0.54,0.35,1.07,0.45,1.64,0.22c2.02-0.82,4.09-1.54,6.02-2.56
		c1.09-0.29,2.25-0.49,2.59-1.83c0.23-1.22,0.24-2.46,0.18-3.7C85.24,46.05,85.21,43.87,85.7,41.72z M127,59.96
		c-0.18-0.02-0.3,0.03-0.27,0.24l0.01-0.01c-0.28-0.08-0.48,0.1-0.69,0.22c-1.36,0.84-2.78,0.87-4.29,0.4
		c-2.41-0.76-4.66-1.91-7.01-2.8c-1.28-0.48-2.51-1.08-3.6-1.93c-1.03-0.81-1.59-1.81-1.73-3.15c-0.22-2.16-0.16-4.32-0.2-6.48
		c-0.01-0.83-0.02-1.65-0.15-2.48c-0.11-0.71-0.36-0.97-1.1-0.97c-5.07,0.03-10.14,0.01-15.22,0.01c-3.09-0.17-3.09-0.17-3.02,2.71
		c0,0.37,0,0.74,0,1.11c0.01,2.75,0.25,5.54-0.98,8.14l0.01-0.01c-0.17-0.02-0.24,0.08-0.26,0.23c-0.8,0.75-1.54,1.56-2.5,2.12
		c-2.26,0.9-4.55,1.76-6.79,2.72c-2.7,1.16-5.22,1.12-7.57-0.84c-0.61-0.5-1.23-0.98-1.79-1.54c-1.29-1.29-2.59-2.58-3.89-3.87
		c-0.67-0.66-1.28-0.83-1.98,0.02c-0.6,0.74-1.31,1.39-1.97,2.08c-3.25,3.04-6.37,6.22-9.45,9.44c-0.93,0.97-0.88,1.68,0.08,2.67
		c1.1,1.13,2.24,2.23,3.43,3.26c2.8,2.42,3.81,5.68,2.38,8.81c-1.35,2.97-2.3,6.11-3.94,8.95c-0.87,0.82-1.62,1.8-2.76,2.3
		c-2.64,0.54-5.31,0.51-7.98,0.53c-2.95-0.34-3.17-0.14-2.94,2.7c-0.01,4.87-0.03,9.74-0.03,14.61c0,0.33,0.17,0.66,0.15,0.98
		c-0.05,0.95,0.47,1.06,1.26,1.06c6.24-0.02,12.49-0.01,18.73-0.01c5.79-0.01,11.57-0.03,17.36-0.04
		c5.57,0.02,11.14,0.04,16.71,0.04c6.98,0,13.97-0.03,20.95-0.04c1.74,0,3.48,0,5.22,0c2.52,0,5.05,0,7.57,0c8.9,0,17.81,0,26.71,0
		c3.4,0.06,2.71,0.43,2.71-2.22c0.01-5.03,0.02-10.06,0.02-15.09c0-0.32-0.16-0.65-0.16-0.97c-0.02-0.82-0.46-1.02-1.21-1.02
		c-2.08-0.01-4.16-0.1-6.23-0.13c-3.9-0.05-6.51-1.8-7.67-5.61c-0.32-1.06-0.88-2.05-1.34-3.07c-1.27-2.75-2.14-5.55-1.1-8.59
		l-0.01,0.01c0.35-0.06,0.33-0.3,0.27-0.56c1.25-1.25,2.5-2.49,3.75-3.74c0.86-0.65,1.5-1.53,2.26-2.28
		c0.85-0.84,0.66-1.42-0.08-2.17c-3.45-3.46-6.86-6.96-10.3-10.43c-0.49-0.5-1.03-0.96-1.58-1.4c-0.27-0.22-0.56-0.51-0.97-0.18
		c-1.08,0.87-2.23,1.69-2.91,2.96c-0.13,0.13-0.27,0.25-0.4,0.38c-0.04,0-0.08,0-0.12,0c0.02,0.01,0.03,0.03,0.05,0.04
		c-1.01,0.84-2.01,1.68-3.02,2.52c-0.19,0.07-0.4,0.11-0.45,0.36L127,59.96z M109.38,157.16c0.17-2.99-0.35-6.02,0.59-8.96
		c0.95-1.61,2.39-2.66,4-3.51c0.22,0.01,0.47,0.06,0.48-0.29c0,0-0.01,0.01-0.01,0.01c1.99-0.52,3.9-1.3,5.79-2.1
		c2.5-1.06,4.79-0.9,7.01,0.8c1.6,1.23,2.93,2.7,4.34,4.1c2.66,2.64,2.65,2.65,5.08-0.15c0.03-0.03,0.03-0.08,0.04-0.12
		c2.61-2.39,5.06-4.93,7.5-7.48c1.02-0.88,2-1.8,2.81-3.09c-0.53,0-0.9,0-1.26,0c-29.05,0-58.11,0-87.16,0
		c-0.37,0-0.75,0.03-1.12,0.05c-1.7,0-3.4,0-5.35,0c1.05,1.04,1.91,1.9,2.77,2.76c3,3.03,6.01,6.05,9.01,9.08
		c0.64,0.65,1.19,0.83,1.94,0.02c0.58-0.62,1.32-1.1,1.86-1.78c1.8-1.74,3.55-3.55,5.76-4.8c0.22-0.01,0.46,0.02,0.49-0.29l-0.01,0
		c1.73-0.16,3.38,0.06,4.99,0.75c2.24,0.97,4.52,1.87,6.77,2.82c2.76,1.18,4.22,3.14,4.09,6.29c-0.09,2.36-0.18,4.74,0.18,7.11
		c0.1,0.69,0.33,1,1.09,1.03c5.2,0.16,10.4,0.28,15.61-0.03c0.32,0.01,0.65,0.04,0.97,0.04c1.67,0.01,1.75-0.07,1.77-1.78
		C109.43,157.48,109.4,157.32,109.38,157.16z M113.36,130.16c2.37,0,4.74-0.03,7.12,0.02c0.71,0.01,1.01-0.15,1.1-0.92
		c0.42-3.3,0.94-6.59,1.37-9.88c0.34-2.56,0.3-2.54-2.27-2.45c-0.64,0.02-0.86,0.24-0.94,0.85c-0.3,2.35-0.67,4.69-0.98,7.04
		c-0.28,2.17-0.25,2.13-2.37,2.14c-0.8,0.01-0.99-0.19-0.86-0.98c0.37-2.25,0.66-4.52,0.99-6.78c0.33-2.26,0.33-2.21-1.98-2.27
		c-0.94-0.03-1.19,0.3-1.3,1.17c-0.27,2.27-0.63,4.53-0.95,6.79c-0.31,2.17-0.31,2.14-2.56,2.07c-0.6-0.02-0.78-0.13-0.67-0.77
		c0.36-2.26,0.65-4.52,0.99-6.79c0.38-2.56,0.39-2.54-2.24-2.47c-0.61,0.02-0.89,0.17-0.98,0.8c-0.51,3.83-1.04,7.67-1.6,11.49
		c-0.12,0.81,0.14,0.98,0.9,0.96C108.53,130.13,110.94,130.16,113.36,130.16z M145.34,123.43c0.05,0.04,0.1,0.07,0.16,0.11
		c-0.14,0.69-0.3,1.37-0.42,2.06c-0.12,0.7-0.21,1.4-0.31,2.1c-0.36,2.56-0.36,2.53,2.25,2.48c0.7-0.01,0.88-0.24,0.97-0.92
		c0.5-3.79,1.04-7.58,1.63-11.36c0.13-0.84-0.14-0.91-0.87-0.99c-1.53-0.18-2.53,0.32-3.37,1.65c-1.18,1.87-2.59,3.6-3.9,5.39
		c0.32-1.52,0.37-3.04,0.62-4.54c0.43-2.56,0.42-2.55-2.22-2.49c-0.58,0.01-0.9,0.09-0.99,0.77c-0.52,3.92-1.09,7.83-1.63,11.75
		c-0.04,0.26-0.17,0.56,0.25,0.72c0.99,0.39,2.97-0.16,3.64-1.06C142.54,127.22,143.94,125.32,145.34,123.43z M73.08,123.17
		c-0.19,1.03-0.32,1.71-0.44,2.39c-0.12,0.7-0.22,1.4-0.33,2.09c-0.4,2.58-0.4,2.56,2.2,2.52c0.66-0.01,0.93-0.16,1.02-0.87
		c0.51-3.83,1.09-7.66,1.63-11.49c0.04-0.26,0.2-0.58-0.1-0.81c-0.4-0.32-2.95,0-3.27,0.44c-1.4,1.91-2.78,3.84-4.19,5.75
		c-0.2,0.27-0.2,0.76-0.79,0.7c0.26-0.71,0.4-1.41,0.47-2.14c0.07-0.74,0.2-1.48,0.33-2.22c0.47-2.77,0.48-2.77-2.32-2.6
		c-0.04,0-0.08,0-0.12,0c-0.45-0.03-0.65,0.15-0.72,0.63c-0.55,3.95-1.12,7.9-1.68,11.86c-0.04,0.31-0.15,0.63,0.37,0.75
		c1.48,0.35,2.82-0.1,3.75-1.35C70.23,127.03,71.55,125.24,73.08,123.17z M84.82,121.91c-1.87,0-1.86,0-1.62-1.78
		c0.05-0.37,0.07-0.75,0.13-1.12c0.33-2.08,0.33-2-1.81-2.11c-1.12-0.06-1.39,0.37-1.52,1.35c-0.39,3.18-0.85,6.34-1.3,9.51
		c-0.34,2.43-0.36,2.38,2.06,2.42c0.88,0.01,1.15-0.3,1.2-1.12c0.06-0.95,0.27-1.9,0.35-2.85c0.07-0.74,0.3-1.05,1.14-1.04
		c2.68,0.02,2.68-0.02,2.33,2.7c-0.01,0.04-0.01,0.08-0.01,0.12c-0.26,2.17-0.26,2.11,1.97,2.19c1,0.04,1.24-0.33,1.35-1.23
		c0.4-3.18,0.86-6.35,1.33-9.51c0.39-2.67,0.4-2.64-2.32-2.52c-0.66,0.03-0.83,0.27-0.89,0.88c-0.1,1.12-0.34,2.22-0.45,3.33
		c-0.05,0.57-0.22,0.85-0.82,0.79C85.57,121.88,85.19,121.91,84.82,121.91z M99.03,116.74c-3.17,0.02-5.64,1.66-6.16,4.14
		c-0.37,1.75-0.57,3.53-0.77,5.31c-0.12,1.03,0.2,2,0.99,2.72c1.75,1.59,3.83,1.68,5.98,1.12c2.03-0.53,3.53-1.73,3.96-3.88
		c0.34-1.71,0.56-3.45,0.74-5.19c0.18-1.69-0.63-2.87-2.12-3.62C100.77,116.9,99.83,116.77,99.03,116.74z M64.92,116.94
		c-1.14,0-1.97,0.07-2.78-0.02c-1.05-0.11-1.79,0.23-2.44,1.09c-0.88,1.17-1.91,2.22-2.88,3.33c-0.14-0.8-0.07-1.46,0.03-2.11
		c0.35-2.3,0.36-2.26-1.94-2.31c-0.86-0.02-1.25,0.16-1.36,1.1c-0.4,3.31-0.9,6.6-1.34,9.9c-0.3,2.29-0.28,2.24,2.11,2.27
		c0.84,0.01,1.07-0.29,1.15-1.05c0.11-1.14,0.31-2.28,0.52-3.72c0.88,1.51,1.6,2.76,2.34,3.99c0.2,0.34,0.32,0.77,0.87,0.75
		c1.19-0.03,2.39-0.01,3.82-0.01c-1.33-2.1-2.52-4.03-3.77-5.92c-0.4-0.6-0.38-0.94,0.13-1.46
		C61.18,120.94,62.92,119.05,64.92,116.94z M128.97,121.68c0.14-1.08,0.22-1.85,0.33-2.61c0.32-2.15,0.33-2.09-1.86-2.17
		c-1.02-0.04-1.33,0.32-1.45,1.29c-0.39,3.18-0.86,6.35-1.31,9.52c-0.36,2.5-0.36,2.45,2.13,2.48c0.87,0.01,1.05-0.36,1.12-1.07
		c0.12-1.14,0.31-2.28,0.51-3.72c0.88,1.52,1.6,2.77,2.34,4.01c0.18,0.31,0.28,0.74,0.75,0.75c1.25,0.01,2.51,0,3.95,0
		c-1.3-2.06-2.4-3.93-3.63-5.69c-0.59-0.84-0.43-1.29,0.23-1.96c1.75-1.75,3.41-3.58,5.29-5.57c-0.99,0-1.7,0.07-2.38-0.01
		c-1.32-0.16-2.27,0.25-3.06,1.36C131.1,119.41,130.09,120.4,128.97,121.68z"/>
	<path class="st1" d="M47.86,63.93c-0.09,0.2-0.02,0.51-0.37,0.52C47.37,64.11,47.59,64,47.86,63.93z"/>
	<path class="st2" d="M139.21,150.91c0.03-0.15,0.1-0.25,0.28-0.22C139.5,150.9,139.36,150.91,139.21,150.91z"/>
	<path class="st1" d="M66.98,153.18c0.01-0.27,0.19-0.29,0.39-0.25C67.29,153.09,67.22,153.27,66.98,153.18z"/>
	<path class="st1" d="M136.22,153.43c0.02-0.26,0.2-0.26,0.39-0.25C136.53,153.34,136.46,153.53,136.22,153.43z"/>
	<path class="st2" d="M73.48,141.7c0.09-0.22,0.23-0.35,0.49-0.29C73.94,141.72,73.7,141.69,73.48,141.7z"/>
	<path class="st2" d="M113.98,144.68c0.11-0.18,0.21-0.37,0.48-0.29C114.45,144.74,114.2,144.69,113.98,144.68z"/>
	<path class="st1" d="M130.52,57.05l0,0.06c0,0-0.08-0.02-0.07-0.02c-0.02-0.01-0.03-0.03-0.05-0.04
		C130.44,57.05,130.48,57.05,130.52,57.05z"/>
	<path class="st3" d="M47.3,134.27c-0.02-0.09-0.05-0.18-0.07-0.27c0.06,0.01,0.12,0.02,0.17,0.03
		C47.37,134.12,47.34,134.2,47.3,134.27z"/>
	<path class="st3" d="M157.43,136.68c-0.03-0.05-0.06-0.11-0.08-0.16c0-0.01,0.05-0.04,0.07-0.06
		C157.49,136.52,157.5,136.6,157.43,136.68z"/>
	<path class="st2" d="M88.76,54.97c0.01,0.19-0.12,0.21-0.26,0.23C88.52,55.05,88.59,54.95,88.76,54.97z"/>
	<path class="st0" d="M117.79,109.6c-0.53,0.07-1.05,0.15-1.58,0.22c-5.37-0.02-10.74-0.17-16.1-0.02
		c-5.53,0.15-11.06-0.03-16.59,0.13c-1.12,0.03-1.94-0.32-2.44-1.34c-0.03-0.13-0.06-0.26-0.08-0.4c0.12-0.5,0.14-1-0.01-1.5
		c0.02-4.74,0.04-9.48,0.06-14.22c0-0.78-0.01-1.54,0.34-2.31c0.42-0.91,1.29-0.85,2.02-1.05c-0.05-0.17-0.05-0.22-0.07-0.25
		c-0.23-0.24-0.47-0.47-0.7-0.7c-2.13-2.13-3.25-4.64-3.17-7.71c0.04-1.72,0.84-3.18,1.28-4.76l-0.01,0.01
		c0.2,0.01,0.24-0.13,0.24-0.29c0,0-0.02,0.03-0.02,0.03c0.07-0.08,0.13-0.17,0.2-0.25c1.25-1.66,2.75-3.01,4.6-3.96
		c0.52-0.13,1.05-0.23,1.55-0.39c1.58-0.53,3.14-0.45,4.74-0.02c3.28,0.87,5.43,3,6.97,5.9c0.06,0.27,0.09,0.64,0.38,0.69
		c0.25,0.05,0.32-0.3,0.43-0.51c0.23-0.46,0.46-0.93,0.69-1.39c0.48-0.56,0.97-1.12,1.45-1.67c0.9-1.04,2.16-1.58,3.23-2.38
		c0.93,0.05,1.76-0.45,2.67-0.52c4.49-0.38,8.31,1.71,10.24,5.64c1.81,3.68,1.06,8.26-1.87,11.48c-0.23,0.25-0.64,0.42-0.57,0.88
		c2.71,0.11,2.98,0.35,3.09,3.11c0.04,0.88,0.34,0.69,0.9,0.45c3.12-1.36,6.25-2.72,9.4-4.01c1.46-0.6,2.13-0.18,2.19,1.39
		c0.24,6.17,0.65,12.34,0.25,18.52c0.01,0.19,0.01,0.37,0.02,0.56c-0.07,0.15-0.16,0.29-0.22,0.44c-0.58,1.51-0.8,1.62-2.5,1.19
		c-1.29-0.77-2.69-1.28-4.08-1.83c-1.31-0.62-2.59-1.31-3.99-1.71c-0.52-0.33-1.06-0.79-1.67-0.6c-0.34,0.11-0.1,0.67-0.06,1.03
		c-0.11,0.39-0.23,0.77-0.34,1.16C118.37,108.94,118.08,109.27,117.79,109.6z M100.62,86.93c-0.26-0.43-0.53-0.86-0.79-1.29
		c-0.23-0.46-0.15-1.08-0.74-1.42c-0.63,1.25-1.39,2.39-2.22,3.47c-0.51,0.38-1.05,0.73-1.28,1.5c0.73-0.04,1.35-0.07,1.96-0.11
		c1.54,0,3.09,0,4.76,0C101.8,88.16,101.2,87.55,100.62,86.93z M86.57,80.44c-0.16,2.05,1.21,3.38,3.4,3.32
		c1.29-0.13,2.25-0.67,2.55-2.04c0.56-2.17-0.63-3.74-3.02-3.96C87.63,77.76,86.57,78.74,86.57,80.44z M109.2,83.95
		c1.52,0.04,2.46-0.73,2.75-2.26c0.01-2.42-1.11-3.7-3.2-3.65c-1.65,0.02-2.61,0.89-2.93,2.68C105.94,82.88,107.2,84.09,109.2,83.95
		z"/>
	<path class="st1" d="M80.97,75.41c0,0.16-0.03,0.3-0.24,0.29C80.67,75.49,80.8,75.43,80.97,75.41z"/>
	<path class="st1" d="M81.15,75.19c-0.07,0.08-0.13,0.17-0.2,0.25C80.92,75.28,81,75.21,81.15,75.19z"/>
	<path class="st0" d="M97.4,127.2c-1.46,0-1.96-0.56-1.76-1.96c0.18-1.27,0.33-2.55,0.55-3.81c0.2-1.17,1.34-1.78,2.8-1.56
		c1.19,0.18,1.45,0.57,1.27,2.04c-0.13,1.07-0.32,2.13-0.47,3.19C99.56,126.59,98.88,127.2,97.4,127.2z"/>
	<path class="st3" d="M81,108.19c-0.39-0.5-0.38-1-0.01-1.5C81.14,107.19,81.12,107.69,81,108.19z"/>
</g>
</svg>
